<?xml version="1.0" encoding="utf-8" standalone="no"?>
<!DOCTYPE svg PUBLIC "-//W3C//DTD SVG 1.1//EN"
  "http://www.w3.org/Graphics/SVG/1.1/DTD/svg11.dtd">
<svg xmlns:xlink="http://www.w3.org/1999/xlink" width="343.390125pt" height="405.618644pt" viewBox="0 0 343.390125 405.618644" xmlns="http://www.w3.org/2000/svg" version="1.1">
 <metadata>
  <rdf:RDF xmlns:dc="http://purl.org/dc/elements/1.1/" xmlns:cc="http://creativecommons.org/ns#" xmlns:rdf="http://www.w3.org/1999/02/22-rdf-syntax-ns#">
   <cc:Work>
    <dc:type rdf:resource="http://purl.org/dc/dcmitype/StillImage"/>
    <dc:date>2025-03-10T05:55:03.172339</dc:date>
    <dc:format>image/svg+xml</dc:format>
    <dc:creator>
     <cc:Agent>
      <dc:title>Matplotlib v3.9.2, https://matplotlib.org/</dc:title>
     </cc:Agent>
    </dc:creator>
   </cc:Work>
  </rdf:RDF>
 </metadata>
 <defs>
  <style type="text/css">*{stroke-linejoin: round; stroke-linecap: butt}</style>
 </defs>
 <g id="figure_1">
  <g id="patch_1">
   <path d="M 0 405.618644 
L 343.390125 405.618644 
L 343.390125 0 
L 0 0 
z
" style="fill: #ffffff"/>
  </g>
  <g id="axes_1">
   <g id="patch_2">
    <path d="M 58.945312 277.111219 
L 325.057312 277.111219 
L 325.057312 10.999219 
L 58.945312 10.999219 
z
" style="fill: #ffffff"/>
   </g>
   <g id="patch_3">
    <path d="M 124.380124 128.663507 
C 125.15122 127.637748 125.579826 126.240135 125.571545 124.778477 
C 125.563264 123.316819 125.118774 121.910453 124.335967 120.869115 
C 123.55316 119.827778 122.495949 119.236489 121.397174 119.225474 
C 120.298398 119.214458 119.247768 119.784615 118.476672 120.810374 
C 117.705576 121.836134 117.27697 123.233746 117.285251 124.695405 
C 117.293532 126.157063 117.738022 127.563429 118.520829 128.604766 
C 119.303636 129.646104 120.360847 130.237393 121.459622 130.248408 
C 122.558398 130.259424 123.609028 129.689267 124.380124 128.663507 
z
" clip-path="url(#pfcbcc2bb54)" style="fill: #2ca02c; opacity: 0.2; stroke-dasharray: 3.7,1.6; stroke-dashoffset: 0; stroke: #2ca02c; stroke-linejoin: miter"/>
   </g>
   <g id="patch_4">
    <path d="M 127.33185 132.590074 
C 128.874043 130.538555 129.731254 127.74333 129.714692 124.820013 
C 129.698131 121.896697 128.809149 119.083965 127.243535 117.00129 
C 125.677921 114.918615 123.563501 113.736037 121.36595 113.714006 
C 119.168399 113.691975 117.067138 114.832289 115.524946 116.883808 
C 113.982753 118.935326 113.125542 121.730552 113.142104 124.653869 
C 113.158665 127.577185 114.047647 130.389917 115.613261 132.472592 
C 117.178875 134.555267 119.293295 135.737845 121.490846 135.759876 
C 123.688397 135.781907 125.789658 134.641593 127.33185 132.590074 
z
" clip-path="url(#pfcbcc2bb54)" style="fill: #2ca02c; opacity: 0.2; stroke-dasharray: 3.7,1.6; stroke-dashoffset: 0; stroke: #2ca02c; stroke-linejoin: miter"/>
   </g>
   <g id="patch_5">
    <path d="M 130.283577 136.51664 
C 132.596865 133.439363 133.882681 129.246524 133.857839 124.86155 
C 133.832997 120.476575 132.499525 116.257477 130.151104 113.133465 
C 127.802683 110.009452 124.631052 108.235585 121.334726 108.202539 
C 118.038399 108.169492 114.886508 109.879963 112.573219 112.957241 
C 110.259931 116.034519 108.974114 120.227358 108.998957 124.612332 
C 109.023799 128.997307 110.357271 133.216404 112.705692 136.340417 
C 115.054113 139.46443 118.225744 141.238297 121.52207 141.271343 
C 124.818397 141.30439 127.970288 139.593918 130.283577 136.51664 
z
" clip-path="url(#pfcbcc2bb54)" style="fill: #2ca02c; opacity: 0.2; stroke-dasharray: 3.7,1.6; stroke-dashoffset: 0; stroke: #2ca02c; stroke-linejoin: miter"/>
   </g>
   <g id="patch_6">
    <path d="M 136.30735 131.980073 
C 136.979671 131.172342 137.354551 130.07321 137.349425 128.924749 
C 137.3443 127.776287 136.959588 126.672262 136.280019 125.855823 
C 135.60045 125.039384 134.681506 124.577189 133.725575 124.571031 
C 132.769644 124.564873 131.854774 125.015256 131.182453 125.822987 
C 130.510132 126.630718 130.135253 127.72985 130.140378 128.878311 
C 130.145503 130.026773 130.530215 131.130798 131.209784 131.947237 
C 131.889354 132.763676 132.808297 133.225871 133.764228 133.232029 
C 134.720159 133.238187 135.635029 132.787804 136.30735 131.980073 
z
" clip-path="url(#pfcbcc2bb54)" style="fill: #ff7f0e; opacity: 0.2; stroke-dasharray: 3.7,1.6; stroke-dashoffset: 0; stroke: #ff7f0e; stroke-linejoin: miter"/>
   </g>
   <g id="patch_7">
    <path d="M 138.869799 135.058617 
C 140.214441 133.443155 140.9642 131.244891 140.953949 128.947967 
C 140.943698 126.651044 140.174275 124.442994 138.815136 122.810116 
C 137.455998 121.177237 135.618111 120.252847 133.706249 120.240532 
C 131.794387 120.228217 129.964646 121.128981 128.620004 122.744443 
C 127.275362 124.359905 126.525603 126.558169 126.535854 128.855093 
C 126.546105 131.152016 127.315528 133.360066 128.674667 134.992944 
C 130.033805 136.625823 131.871692 137.550213 133.783554 137.562528 
C 135.695416 137.574843 137.525157 136.674079 138.869799 135.058617 
z
" clip-path="url(#pfcbcc2bb54)" style="fill: #ff7f0e; opacity: 0.2; stroke-dasharray: 3.7,1.6; stroke-dashoffset: 0; stroke: #ff7f0e; stroke-linejoin: miter"/>
   </g>
   <g id="patch_8">
    <path d="M 141.432248 138.13716 
C 143.449211 135.713967 144.573849 132.416571 144.558473 128.971186 
C 144.543097 125.525801 143.388962 122.213726 141.350254 119.764409 
C 139.311546 117.315091 136.554715 115.928506 133.686923 115.910033 
C 130.81913 115.89156 128.074518 117.242707 126.057555 119.6659 
C 124.040592 122.089093 122.915954 125.386489 122.93133 128.831874 
C 122.946707 132.277259 124.100841 135.589334 126.139549 138.038651 
C 128.178257 140.487969 130.935088 141.874554 133.80288 141.893027 
C 136.670673 141.9115 139.415285 140.560353 141.432248 138.13716 
z
" clip-path="url(#pfcbcc2bb54)" style="fill: #ff7f0e; opacity: 0.2; stroke-dasharray: 3.7,1.6; stroke-dashoffset: 0; stroke: #ff7f0e; stroke-linejoin: miter"/>
   </g>
   <g id="patch_9">
    <path d="M 268.352039 123.768196 
C 269.09511 122.734095 269.513095 121.332016 269.513939 119.870751 
C 269.514783 118.409486 269.098417 117.00834 268.356539 115.9759 
C 267.614662 114.943461 266.607846 114.36402 265.557829 114.365195 
C 264.507812 114.36637 263.500325 114.948063 262.757254 115.982164 
C 262.014183 117.016265 261.596198 118.418344 261.595354 119.879609 
C 261.59451 121.340874 262.010876 122.742019 262.752753 123.774459 
C 263.494631 124.806899 264.501447 125.386339 265.551464 125.385164 
C 266.601481 125.38399 267.608968 124.802296 268.352039 123.768196 
z
" clip-path="url(#pfcbcc2bb54)" style="fill: #2ca02c; opacity: 0.2; stroke-dasharray: 3.7,1.6; stroke-dashoffset: 0; stroke: #2ca02c; stroke-linejoin: miter"/>
   </g>
   <g id="patch_10">
    <path d="M 271.149431 127.661211 
C 272.635573 125.59301 273.471544 122.788852 273.473232 119.866322 
C 273.47492 116.943792 272.642187 114.141501 271.158432 112.076621 
C 269.674678 110.011741 267.661045 108.852861 265.561011 108.85521 
C 263.460978 108.857559 261.446003 110.020946 259.959862 112.089148 
C 258.47372 114.15735 257.637749 116.961507 257.636061 119.884037 
C 257.634373 122.806567 258.467106 125.608858 259.95086 127.673738 
C 261.434615 129.738618 263.448248 130.897498 265.548282 130.895149 
C 267.648315 130.8928 269.66329 129.729413 271.149431 127.661211 
z
" clip-path="url(#pfcbcc2bb54)" style="fill: #2ca02c; opacity: 0.2; stroke-dasharray: 3.7,1.6; stroke-dashoffset: 0; stroke: #2ca02c; stroke-linejoin: miter"/>
   </g>
   <g id="patch_11">
    <path d="M 273.946823 131.554227 
C 276.176036 128.451924 277.429992 124.245688 277.432524 119.861893 
C 277.435056 115.478098 276.185957 111.274662 273.960325 108.177342 
C 271.734694 105.080022 268.714244 103.341702 265.564194 103.345226 
C 262.414144 103.348749 259.391682 105.093829 257.162469 108.196132 
C 254.933257 111.298435 253.679301 115.504671 253.676769 119.888466 
C 253.674237 124.272261 254.923336 128.475698 257.148967 131.573017 
C 259.374599 134.670337 262.395049 136.408657 265.545099 136.405134 
C 268.695149 136.40161 271.717611 134.65653 273.946823 131.554227 
z
" clip-path="url(#pfcbcc2bb54)" style="fill: #2ca02c; opacity: 0.2; stroke-dasharray: 3.7,1.6; stroke-dashoffset: 0; stroke: #2ca02c; stroke-linejoin: miter"/>
   </g>
   <g id="patch_12">
    <path d="M 255.728077 128.741769 
C 256.383769 127.95 256.75188 126.875612 256.751338 125.755227 
C 256.750796 124.634842 256.381645 123.559934 255.725186 122.76724 
C 255.068727 121.974545 254.178557 121.528783 253.250726 121.528129 
C 252.322895 121.527474 251.433156 121.97198 250.777464 122.763749 
C 250.121771 123.555518 249.75366 124.629906 249.754202 125.750291 
C 249.754744 126.870676 250.123895 127.945584 250.780354 128.738278 
C 251.436813 129.530973 252.326983 129.976735 253.254814 129.977389 
C 254.182645 129.978044 255.072384 129.533538 255.728077 128.741769 
z
" clip-path="url(#pfcbcc2bb54)" style="fill: #ff7f0e; opacity: 0.2; stroke-dasharray: 3.7,1.6; stroke-dashoffset: 0; stroke: #ff7f0e; stroke-linejoin: miter"/>
   </g>
   <g id="patch_13">
    <path d="M 258.203383 131.730779 
C 259.514768 130.147241 260.25099 127.998465 260.249906 125.757695 
C 260.248822 123.516925 259.51052 121.36711 258.197602 119.78172 
C 256.884684 118.196331 255.104344 117.304808 253.248682 117.303498 
C 251.39302 117.302189 249.613542 118.191201 248.302157 119.774739 
C 246.990773 121.358277 246.25455 123.507053 246.255634 125.747823 
C 246.256718 127.988593 246.995021 130.138409 248.307939 131.723798 
C 249.620856 133.309187 251.401196 134.20071 253.256858 134.20202 
C 255.11252 134.203329 256.891998 133.314317 258.203383 131.730779 
z
" clip-path="url(#pfcbcc2bb54)" style="fill: #ff7f0e; opacity: 0.2; stroke-dasharray: 3.7,1.6; stroke-dashoffset: 0; stroke: #ff7f0e; stroke-linejoin: miter"/>
   </g>
   <g id="patch_14">
    <path d="M 260.678689 134.719789 
C 262.645766 132.344482 263.7501 129.121319 263.748474 125.760164 
C 263.746848 122.399008 262.639394 119.174285 260.670018 116.796201 
C 258.700641 114.418117 256.030131 113.080832 253.246638 113.078868 
C 250.463145 113.076904 247.793928 114.410422 245.826851 116.785729 
C 243.859774 119.161036 242.75544 122.384199 242.757066 125.745354 
C 242.758693 129.10651 243.866146 132.331233 245.835523 134.709317 
C 247.8049 137.087402 250.475409 138.424686 253.258902 138.42665 
C 256.042395 138.428614 258.711612 137.095096 260.678689 134.719789 
z
" clip-path="url(#pfcbcc2bb54)" style="fill: #ff7f0e; opacity: 0.2; stroke-dasharray: 3.7,1.6; stroke-dashoffset: 0; stroke: #ff7f0e; stroke-linejoin: miter"/>
   </g>
   <g id="patch_15">
    <path d="M 172.762165 218.291162 
C 173.492583 217.753342 173.90287 217.023715 173.902665 216.262972 
C 173.90246 215.502229 173.49178 214.772482 172.761072 214.234449 
C 172.030364 213.696416 171.039287 213.394025 170.006115 213.393874 
C 168.972943 213.393723 167.98203 213.695824 167.251612 214.233644 
C 166.521194 214.771463 166.110907 215.501091 166.111112 216.261833 
C 166.111317 217.022576 166.521997 217.752323 167.252705 218.290357 
C 167.983413 218.82839 168.97449 219.130781 170.007662 219.130932 
C 171.040834 219.131083 172.031747 218.828981 172.762165 218.291162 
z
" clip-path="url(#pfcbcc2bb54)" style="fill: #9467bd; opacity: 0.2; stroke-dasharray: 3.7,1.6; stroke-dashoffset: 0; stroke: #9467bd; stroke-linejoin: miter"/>
   </g>
   <g id="patch_16">
    <path d="M 175.517442 220.319921 
C 176.978278 219.244281 177.798852 217.785027 177.798442 216.263541 
C 177.798032 214.742056 176.976671 213.282561 175.515255 212.206495 
C 174.053839 211.130429 172.071686 210.525646 170.005342 210.525344 
C 167.938998 210.525042 165.957171 211.129245 164.496335 212.204885 
C 163.035499 213.280524 162.214925 214.739779 162.215335 216.261264 
C 162.215745 217.78275 163.037106 219.242244 164.498522 220.31831 
C 165.959938 221.394377 167.942091 221.999159 170.008435 221.999461 
C 172.074779 221.999763 174.056606 221.39556 175.517442 220.319921 
z
" clip-path="url(#pfcbcc2bb54)" style="fill: #9467bd; opacity: 0.2; stroke-dasharray: 3.7,1.6; stroke-dashoffset: 0; stroke: #9467bd; stroke-linejoin: miter"/>
   </g>
   <g id="patch_17">
    <path d="M 178.272719 222.34868 
C 180.463973 220.735221 181.694834 218.546339 181.694219 216.264111 
C 181.693603 213.981882 180.461563 211.792641 178.269439 210.178541 
C 176.077315 208.564442 173.104085 207.657268 170.004569 207.656815 
C 166.905053 207.656362 163.932312 208.562667 161.741058 210.176126 
C 159.549804 211.789585 158.318943 213.978466 158.319559 216.260695 
C 158.320174 218.542923 159.552214 220.732165 161.744338 222.346264 
C 163.936462 223.960364 166.909692 224.867537 170.009208 224.86799 
C 173.108724 224.868443 176.081465 223.962139 178.272719 222.34868 
z
" clip-path="url(#pfcbcc2bb54)" style="fill: #9467bd; opacity: 0.2; stroke-dasharray: 3.7,1.6; stroke-dashoffset: 0; stroke: #9467bd; stroke-linejoin: miter"/>
   </g>
   <g id="patch_18">
    <path d="M 177.125274 205.672652 
C 177.691003 205.199156 178.011259 204.558866 178.01551 203.8928 
C 178.019761 203.226733 177.707659 202.589271 177.147942 202.120807 
C 176.588224 201.652342 175.82659 201.391124 175.030779 201.394682 
C 174.234968 201.39824 173.469955 201.666283 172.904226 202.139779 
C 172.338497 202.613275 172.01824 203.253565 172.013989 203.919631 
C 172.009738 204.585698 172.32184 205.22316 172.881557 205.691624 
C 173.441275 206.160089 174.20291 206.421307 174.998721 206.417749 
C 175.794532 206.414191 176.559544 206.146148 177.125274 205.672652 
z
" clip-path="url(#pfcbcc2bb54)" style="fill: #d62728; opacity: 0.2; stroke-dasharray: 3.7,1.6; stroke-dashoffset: 0; stroke: #d62728; stroke-linejoin: miter"/>
   </g>
   <g id="patch_19">
    <path d="M 179.235797 207.439088 
C 180.367256 206.492096 181.007769 205.211517 181.016271 203.879384 
C 181.024772 202.547251 180.400569 201.272327 179.281134 200.335398 
C 178.161699 199.398469 176.63843 198.876032 175.046808 198.883148 
C 173.455186 198.890264 171.92516 199.426351 170.793702 200.373343 
C 169.662244 201.320335 169.021731 202.600914 169.013229 203.933047 
C 169.004727 205.26518 169.62893 206.540105 170.748365 207.477033 
C 171.8678 208.413962 173.39107 208.936399 174.982692 208.929283 
C 176.574314 208.922167 178.104339 208.38608 179.235797 207.439088 
z
" clip-path="url(#pfcbcc2bb54)" style="fill: #d62728; opacity: 0.2; stroke-dasharray: 3.7,1.6; stroke-dashoffset: 0; stroke: #d62728; stroke-linejoin: miter"/>
   </g>
   <g id="patch_20">
    <path d="M 181.346321 209.205524 
C 183.043509 207.785036 184.004278 205.864168 184.017031 203.865968 
C 184.029784 201.867769 183.093479 199.955382 181.414327 198.549989 
C 179.735174 197.144596 177.45027 196.360941 175.062837 196.371614 
C 172.675404 196.382288 170.380366 197.186419 168.683178 198.606907 
C 166.98599 200.027395 166.025221 201.948263 166.012468 203.946463 
C 165.999715 205.944662 166.93602 207.857049 168.615173 209.262442 
C 170.294325 210.667835 172.57923 211.45149 174.966663 211.440817 
C 177.354096 211.430143 179.649134 210.626012 181.346321 209.205524 
z
" clip-path="url(#pfcbcc2bb54)" style="fill: #d62728; opacity: 0.2; stroke-dasharray: 3.7,1.6; stroke-dashoffset: 0; stroke: #d62728; stroke-linejoin: miter"/>
   </g>
   <g id="matplotlib.axis_1">
    <g id="xtick_1">
     <g id="line2d_1">
      <defs>
       <path id="m4452b3425a" d="M 0 0 
L 0 3.5 
" style="stroke: #000000; stroke-width: 0.8"/>
      </defs>
      <g>
       <use xlink:href="#m4452b3425a" x="58.945312" y="277.111219" style="stroke: #000000; stroke-width: 0.8"/>
      </g>
     </g>
     <g id="text_1">
      <!-- −1.00 -->
      <g transform="translate(43.622656 291.709656) scale(0.1 -0.1)">
       <defs>
        <path id="DejaVuSans-2212" d="M 678 2272 
L 4684 2272 
L 4684 1741 
L 678 1741 
L 678 2272 
z
" transform="scale(0.015625)"/>
        <path id="DejaVuSans-31" d="M 794 531 
L 1825 531 
L 1825 4091 
L 703 3866 
L 703 4441 
L 1819 4666 
L 2450 4666 
L 2450 531 
L 3481 531 
L 3481 0 
L 794 0 
L 794 531 
z
" transform="scale(0.015625)"/>
        <path id="DejaVuSans-2e" d="M 684 794 
L 1344 794 
L 1344 0 
L 684 0 
L 684 794 
z
" transform="scale(0.015625)"/>
        <path id="DejaVuSans-30" d="M 2034 4250 
Q 1547 4250 1301 3770 
Q 1056 3291 1056 2328 
Q 1056 1369 1301 889 
Q 1547 409 2034 409 
Q 2525 409 2770 889 
Q 3016 1369 3016 2328 
Q 3016 3291 2770 3770 
Q 2525 4250 2034 4250 
z
M 2034 4750 
Q 2819 4750 3233 4129 
Q 3647 3509 3647 2328 
Q 3647 1150 3233 529 
Q 2819 -91 2034 -91 
Q 1250 -91 836 529 
Q 422 1150 422 2328 
Q 422 3509 836 4129 
Q 1250 4750 2034 4750 
z
" transform="scale(0.015625)"/>
       </defs>
       <use xlink:href="#DejaVuSans-2212"/>
       <use xlink:href="#DejaVuSans-31" x="83.789062"/>
       <use xlink:href="#DejaVuSans-2e" x="147.412109"/>
       <use xlink:href="#DejaVuSans-30" x="179.199219"/>
       <use xlink:href="#DejaVuSans-30" x="242.822266"/>
      </g>
     </g>
    </g>
    <g id="xtick_2">
     <g id="line2d_2">
      <g>
       <use xlink:href="#m4452b3425a" x="92.209312" y="277.111219" style="stroke: #000000; stroke-width: 0.8"/>
      </g>
     </g>
     <g id="text_2">
      <!-- −0.75 -->
      <g transform="translate(76.886656 291.709656) scale(0.1 -0.1)">
       <defs>
        <path id="DejaVuSans-37" d="M 525 4666 
L 3525 4666 
L 3525 4397 
L 1831 0 
L 1172 0 
L 2766 4134 
L 525 4134 
L 525 4666 
z
" transform="scale(0.015625)"/>
        <path id="DejaVuSans-35" d="M 691 4666 
L 3169 4666 
L 3169 4134 
L 1269 4134 
L 1269 2991 
Q 1406 3038 1543 3061 
Q 1681 3084 1819 3084 
Q 2600 3084 3056 2656 
Q 3513 2228 3513 1497 
Q 3513 744 3044 326 
Q 2575 -91 1722 -91 
Q 1428 -91 1123 -41 
Q 819 9 494 109 
L 494 744 
Q 775 591 1075 516 
Q 1375 441 1709 441 
Q 2250 441 2565 725 
Q 2881 1009 2881 1497 
Q 2881 1984 2565 2268 
Q 2250 2553 1709 2553 
Q 1456 2553 1204 2497 
Q 953 2441 691 2322 
L 691 4666 
z
" transform="scale(0.015625)"/>
       </defs>
       <use xlink:href="#DejaVuSans-2212"/>
       <use xlink:href="#DejaVuSans-30" x="83.789062"/>
       <use xlink:href="#DejaVuSans-2e" x="147.412109"/>
       <use xlink:href="#DejaVuSans-37" x="179.199219"/>
       <use xlink:href="#DejaVuSans-35" x="242.822266"/>
      </g>
     </g>
    </g>
    <g id="xtick_3">
     <g id="line2d_3">
      <g>
       <use xlink:href="#m4452b3425a" x="125.473312" y="277.111219" style="stroke: #000000; stroke-width: 0.8"/>
      </g>
     </g>
     <g id="text_3">
      <!-- −0.50 -->
      <g transform="translate(110.150656 291.709656) scale(0.1 -0.1)">
       <use xlink:href="#DejaVuSans-2212"/>
       <use xlink:href="#DejaVuSans-30" x="83.789062"/>
       <use xlink:href="#DejaVuSans-2e" x="147.412109"/>
       <use xlink:href="#DejaVuSans-35" x="179.199219"/>
       <use xlink:href="#DejaVuSans-30" x="242.822266"/>
      </g>
     </g>
    </g>
    <g id="xtick_4">
     <g id="line2d_4">
      <g>
       <use xlink:href="#m4452b3425a" x="158.737312" y="277.111219" style="stroke: #000000; stroke-width: 0.8"/>
      </g>
     </g>
     <g id="text_4">
      <!-- −0.25 -->
      <g transform="translate(143.414656 291.709656) scale(0.1 -0.1)">
       <defs>
        <path id="DejaVuSans-32" d="M 1228 531 
L 3431 531 
L 3431 0 
L 469 0 
L 469 531 
Q 828 903 1448 1529 
Q 2069 2156 2228 2338 
Q 2531 2678 2651 2914 
Q 2772 3150 2772 3378 
Q 2772 3750 2511 3984 
Q 2250 4219 1831 4219 
Q 1534 4219 1204 4116 
Q 875 4013 500 3803 
L 500 4441 
Q 881 4594 1212 4672 
Q 1544 4750 1819 4750 
Q 2544 4750 2975 4387 
Q 3406 4025 3406 3419 
Q 3406 3131 3298 2873 
Q 3191 2616 2906 2266 
Q 2828 2175 2409 1742 
Q 1991 1309 1228 531 
z
" transform="scale(0.015625)"/>
       </defs>
       <use xlink:href="#DejaVuSans-2212"/>
       <use xlink:href="#DejaVuSans-30" x="83.789062"/>
       <use xlink:href="#DejaVuSans-2e" x="147.412109"/>
       <use xlink:href="#DejaVuSans-32" x="179.199219"/>
       <use xlink:href="#DejaVuSans-35" x="242.822266"/>
      </g>
     </g>
    </g>
    <g id="xtick_5">
     <g id="line2d_5">
      <g>
       <use xlink:href="#m4452b3425a" x="192.001312" y="277.111219" style="stroke: #000000; stroke-width: 0.8"/>
      </g>
     </g>
     <g id="text_5">
      <!-- 0.00 -->
      <g transform="translate(180.8685 291.709656) scale(0.1 -0.1)">
       <use xlink:href="#DejaVuSans-30"/>
       <use xlink:href="#DejaVuSans-2e" x="63.623047"/>
       <use xlink:href="#DejaVuSans-30" x="95.410156"/>
       <use xlink:href="#DejaVuSans-30" x="159.033203"/>
      </g>
     </g>
    </g>
    <g id="xtick_6">
     <g id="line2d_6">
      <g>
       <use xlink:href="#m4452b3425a" x="225.265312" y="277.111219" style="stroke: #000000; stroke-width: 0.8"/>
      </g>
     </g>
     <g id="text_6">
      <!-- 0.25 -->
      <g transform="translate(214.1325 291.709656) scale(0.1 -0.1)">
       <use xlink:href="#DejaVuSans-30"/>
       <use xlink:href="#DejaVuSans-2e" x="63.623047"/>
       <use xlink:href="#DejaVuSans-32" x="95.410156"/>
       <use xlink:href="#DejaVuSans-35" x="159.033203"/>
      </g>
     </g>
    </g>
    <g id="xtick_7">
     <g id="line2d_7">
      <g>
       <use xlink:href="#m4452b3425a" x="258.529312" y="277.111219" style="stroke: #000000; stroke-width: 0.8"/>
      </g>
     </g>
     <g id="text_7">
      <!-- 0.50 -->
      <g transform="translate(247.3965 291.709656) scale(0.1 -0.1)">
       <use xlink:href="#DejaVuSans-30"/>
       <use xlink:href="#DejaVuSans-2e" x="63.623047"/>
       <use xlink:href="#DejaVuSans-35" x="95.410156"/>
       <use xlink:href="#DejaVuSans-30" x="159.033203"/>
      </g>
     </g>
    </g>
    <g id="xtick_8">
     <g id="line2d_8">
      <g>
       <use xlink:href="#m4452b3425a" x="291.793312" y="277.111219" style="stroke: #000000; stroke-width: 0.8"/>
      </g>
     </g>
     <g id="text_8">
      <!-- 0.75 -->
      <g transform="translate(280.6605 291.709656) scale(0.1 -0.1)">
       <use xlink:href="#DejaVuSans-30"/>
       <use xlink:href="#DejaVuSans-2e" x="63.623047"/>
       <use xlink:href="#DejaVuSans-37" x="95.410156"/>
       <use xlink:href="#DejaVuSans-35" x="159.033203"/>
      </g>
     </g>
    </g>
    <g id="xtick_9">
     <g id="line2d_9">
      <g>
       <use xlink:href="#m4452b3425a" x="325.057312" y="277.111219" style="stroke: #000000; stroke-width: 0.8"/>
      </g>
     </g>
     <g id="text_9">
      <!-- 1.00 -->
      <g transform="translate(313.9245 291.709656) scale(0.1 -0.1)">
       <use xlink:href="#DejaVuSans-31"/>
       <use xlink:href="#DejaVuSans-2e" x="63.623047"/>
       <use xlink:href="#DejaVuSans-30" x="95.410156"/>
       <use xlink:href="#DejaVuSans-30" x="159.033203"/>
      </g>
     </g>
    </g>
    <g id="text_10">
     <!-- $\mathrm{Re}(\mathrm{E}_s[\langle s|U_B|s\rangle])$ -->
     <g transform="translate(153.801312 305.489344) scale(0.1 -0.1)">
      <defs>
       <path id="DejaVuSans-52" d="M 2841 2188 
Q 3044 2119 3236 1894 
Q 3428 1669 3622 1275 
L 4263 0 
L 3584 0 
L 2988 1197 
Q 2756 1666 2539 1819 
Q 2322 1972 1947 1972 
L 1259 1972 
L 1259 0 
L 628 0 
L 628 4666 
L 2053 4666 
Q 2853 4666 3247 4331 
Q 3641 3997 3641 3322 
Q 3641 2881 3436 2590 
Q 3231 2300 2841 2188 
z
M 1259 4147 
L 1259 2491 
L 2053 2491 
Q 2509 2491 2742 2702 
Q 2975 2913 2975 3322 
Q 2975 3731 2742 3939 
Q 2509 4147 2053 4147 
L 1259 4147 
z
" transform="scale(0.015625)"/>
       <path id="DejaVuSans-65" d="M 3597 1894 
L 3597 1613 
L 953 1613 
Q 991 1019 1311 708 
Q 1631 397 2203 397 
Q 2534 397 2845 478 
Q 3156 559 3463 722 
L 3463 178 
Q 3153 47 2828 -22 
Q 2503 -91 2169 -91 
Q 1331 -91 842 396 
Q 353 884 353 1716 
Q 353 2575 817 3079 
Q 1281 3584 2069 3584 
Q 2775 3584 3186 3129 
Q 3597 2675 3597 1894 
z
M 3022 2063 
Q 3016 2534 2758 2815 
Q 2500 3097 2075 3097 
Q 1594 3097 1305 2825 
Q 1016 2553 972 2059 
L 3022 2063 
z
" transform="scale(0.015625)"/>
       <path id="DejaVuSans-28" d="M 1984 4856 
Q 1566 4138 1362 3434 
Q 1159 2731 1159 2009 
Q 1159 1288 1364 580 
Q 1569 -128 1984 -844 
L 1484 -844 
Q 1016 -109 783 600 
Q 550 1309 550 2009 
Q 550 2706 781 3412 
Q 1013 4119 1484 4856 
L 1984 4856 
z
" transform="scale(0.015625)"/>
       <path id="DejaVuSans-45" d="M 628 4666 
L 3578 4666 
L 3578 4134 
L 1259 4134 
L 1259 2753 
L 3481 2753 
L 3481 2222 
L 1259 2222 
L 1259 531 
L 3634 531 
L 3634 0 
L 628 0 
L 628 4666 
z
" transform="scale(0.015625)"/>
       <path id="DejaVuSans-Oblique-73" d="M 3200 3397 
L 3091 2853 
Q 2863 2978 2609 3040 
Q 2356 3103 2088 3103 
Q 1634 3103 1373 2948 
Q 1113 2794 1113 2528 
Q 1113 2219 1719 2053 
Q 1766 2041 1788 2034 
L 1972 1978 
Q 2547 1819 2739 1644 
Q 2931 1469 2931 1166 
Q 2931 609 2489 259 
Q 2047 -91 1331 -91 
Q 1053 -91 747 -37 
Q 441 16 72 128 
L 184 722 
Q 500 559 806 475 
Q 1113 391 1394 391 
Q 1816 391 2080 572 
Q 2344 753 2344 1031 
Q 2344 1331 1650 1516 
L 1591 1531 
L 1394 1581 
Q 956 1697 753 1886 
Q 550 2075 550 2369 
Q 550 2928 970 3256 
Q 1391 3584 2113 3584 
Q 2397 3584 2667 3537 
Q 2938 3491 3200 3397 
z
" transform="scale(0.015625)"/>
       <path id="DejaVuSans-5b" d="M 550 4863 
L 1875 4863 
L 1875 4416 
L 1125 4416 
L 1125 -397 
L 1875 -397 
L 1875 -844 
L 550 -844 
L 550 4863 
z
" transform="scale(0.015625)"/>
       <path id="DejaVuSans-27e8" d="M 572 2006 
L 1453 4856 
L 1984 4856 
L 1103 2006 
L 1984 -844 
L 1453 -844 
L 572 2006 
z
" transform="scale(0.015625)"/>
       <path id="DejaVuSans-7c" d="M 1344 4891 
L 1344 -1509 
L 813 -1509 
L 813 4891 
L 1344 4891 
z
" transform="scale(0.015625)"/>
       <path id="DejaVuSans-Oblique-55" d="M 991 4666 
L 1625 4666 
L 1075 1831 
Q 1041 1641 1027 1517 
Q 1013 1394 1013 1300 
Q 1013 869 1253 645 
Q 1494 422 1959 422 
Q 2563 422 2898 753 
Q 3234 1084 3378 1831 
L 3928 4666 
L 4563 4666 
L 4000 1753 
Q 3816 809 3300 359 
Q 2784 -91 1888 -91 
Q 1188 -91 780 261 
Q 372 613 372 1216 
Q 372 1325 387 1461 
Q 403 1597 434 1753 
L 991 4666 
z
" transform="scale(0.015625)"/>
       <path id="DejaVuSans-Oblique-42" d="M 1081 4666 
L 2694 4666 
Q 3350 4666 3675 4422 
Q 4000 4178 4000 3688 
Q 4000 3238 3720 2911 
Q 3441 2584 2988 2516 
Q 3375 2428 3569 2181 
Q 3763 1934 3763 1522 
Q 3763 819 3242 409 
Q 2722 0 1819 0 
L 172 0 
L 1081 4666 
z
M 1234 2228 
L 903 519 
L 1919 519 
Q 2491 519 2800 781 
Q 3109 1044 3109 1522 
Q 3109 1891 2904 2059 
Q 2700 2228 2247 2228 
L 1234 2228 
z
M 1606 4147 
L 1331 2741 
L 2272 2741 
Q 2775 2741 3058 2959 
Q 3341 3178 3341 3566 
Q 3341 3869 3150 4008 
Q 2959 4147 2541 4147 
L 1606 4147 
z
" transform="scale(0.015625)"/>
       <path id="DejaVuSans-27e9" d="M 1925 2006 
L 1044 -844 
L 513 -844 
L 1394 2006 
L 513 4856 
L 1044 4856 
L 1925 2006 
z
" transform="scale(0.015625)"/>
       <path id="DejaVuSans-5d" d="M 1947 4863 
L 1947 -844 
L 622 -844 
L 622 -397 
L 1369 -397 
L 1369 4416 
L 622 4416 
L 622 4863 
L 1947 4863 
z
" transform="scale(0.015625)"/>
       <path id="DejaVuSans-29" d="M 513 4856 
L 1013 4856 
Q 1481 4119 1714 3412 
Q 1947 2706 1947 2009 
Q 1947 1309 1714 600 
Q 1481 -109 1013 -844 
L 513 -844 
Q 928 -128 1133 580 
Q 1338 1288 1338 2009 
Q 1338 2731 1133 3434 
Q 928 4138 513 4856 
z
" transform="scale(0.015625)"/>
      </defs>
      <use xlink:href="#DejaVuSans-52" transform="translate(0 0.578125)"/>
      <use xlink:href="#DejaVuSans-65" transform="translate(69.482422 0.578125)"/>
      <use xlink:href="#DejaVuSans-28" transform="translate(131.005859 0.578125)"/>
      <use xlink:href="#DejaVuSans-45" transform="translate(170.019531 0.578125)"/>
      <use xlink:href="#DejaVuSans-Oblique-73" transform="translate(234.160156 -15.828125) scale(0.7)"/>
      <use xlink:href="#DejaVuSans-5b" transform="translate(273.364258 0.578125)"/>
      <use xlink:href="#DejaVuSans-27e8" transform="translate(312.37793 0.578125)"/>
      <use xlink:href="#DejaVuSans-Oblique-73" transform="translate(351.391602 0.578125)"/>
      <use xlink:href="#DejaVuSans-7c" transform="translate(403.491211 0.578125)"/>
      <use xlink:href="#DejaVuSans-Oblique-55" transform="translate(437.182617 0.578125)"/>
      <use xlink:href="#DejaVuSans-Oblique-42" transform="translate(510.375977 -15.828125) scale(0.7)"/>
      <use xlink:href="#DejaVuSans-7c" transform="translate(561.132812 0.578125)"/>
      <use xlink:href="#DejaVuSans-Oblique-73" transform="translate(594.824219 0.578125)"/>
      <use xlink:href="#DejaVuSans-27e9" transform="translate(646.923828 0.578125)"/>
      <use xlink:href="#DejaVuSans-5d" transform="translate(685.9375 0.578125)"/>
      <use xlink:href="#DejaVuSans-29" transform="translate(724.951172 0.578125)"/>
     </g>
    </g>
   </g>
   <g id="matplotlib.axis_2">
    <g id="ytick_1">
     <g id="line2d_10">
      <defs>
       <path id="meac27eaa57" d="M 0 0 
L -3.5 0 
" style="stroke: #000000; stroke-width: 0.8"/>
      </defs>
      <g>
       <use xlink:href="#meac27eaa57" x="58.945312" y="277.111219" style="stroke: #000000; stroke-width: 0.8"/>
      </g>
     </g>
     <g id="text_11">
      <!-- −1.00 -->
      <g transform="translate(21.3 280.910437) scale(0.1 -0.1)">
       <use xlink:href="#DejaVuSans-2212"/>
       <use xlink:href="#DejaVuSans-31" x="83.789062"/>
       <use xlink:href="#DejaVuSans-2e" x="147.412109"/>
       <use xlink:href="#DejaVuSans-30" x="179.199219"/>
       <use xlink:href="#DejaVuSans-30" x="242.822266"/>
      </g>
     </g>
    </g>
    <g id="ytick_2">
     <g id="line2d_11">
      <g>
       <use xlink:href="#meac27eaa57" x="58.945312" y="243.847219" style="stroke: #000000; stroke-width: 0.8"/>
      </g>
     </g>
     <g id="text_12">
      <!-- −0.75 -->
      <g transform="translate(21.3 247.646437) scale(0.1 -0.1)">
       <use xlink:href="#DejaVuSans-2212"/>
       <use xlink:href="#DejaVuSans-30" x="83.789062"/>
       <use xlink:href="#DejaVuSans-2e" x="147.412109"/>
       <use xlink:href="#DejaVuSans-37" x="179.199219"/>
       <use xlink:href="#DejaVuSans-35" x="242.822266"/>
      </g>
     </g>
    </g>
    <g id="ytick_3">
     <g id="line2d_12">
      <g>
       <use xlink:href="#meac27eaa57" x="58.945312" y="210.583219" style="stroke: #000000; stroke-width: 0.8"/>
      </g>
     </g>
     <g id="text_13">
      <!-- −0.50 -->
      <g transform="translate(21.3 214.382437) scale(0.1 -0.1)">
       <use xlink:href="#DejaVuSans-2212"/>
       <use xlink:href="#DejaVuSans-30" x="83.789062"/>
       <use xlink:href="#DejaVuSans-2e" x="147.412109"/>
       <use xlink:href="#DejaVuSans-35" x="179.199219"/>
       <use xlink:href="#DejaVuSans-30" x="242.822266"/>
      </g>
     </g>
    </g>
    <g id="ytick_4">
     <g id="line2d_13">
      <g>
       <use xlink:href="#meac27eaa57" x="58.945312" y="177.319219" style="stroke: #000000; stroke-width: 0.8"/>
      </g>
     </g>
     <g id="text_14">
      <!-- −0.25 -->
      <g transform="translate(21.3 181.118437) scale(0.1 -0.1)">
       <use xlink:href="#DejaVuSans-2212"/>
       <use xlink:href="#DejaVuSans-30" x="83.789062"/>
       <use xlink:href="#DejaVuSans-2e" x="147.412109"/>
       <use xlink:href="#DejaVuSans-32" x="179.199219"/>
       <use xlink:href="#DejaVuSans-35" x="242.822266"/>
      </g>
     </g>
    </g>
    <g id="ytick_5">
     <g id="line2d_14">
      <g>
       <use xlink:href="#meac27eaa57" x="58.945312" y="144.055219" style="stroke: #000000; stroke-width: 0.8"/>
      </g>
     </g>
     <g id="text_15">
      <!-- 0.00 -->
      <g transform="translate(29.679688 147.854437) scale(0.1 -0.1)">
       <use xlink:href="#DejaVuSans-30"/>
       <use xlink:href="#DejaVuSans-2e" x="63.623047"/>
       <use xlink:href="#DejaVuSans-30" x="95.410156"/>
       <use xlink:href="#DejaVuSans-30" x="159.033203"/>
      </g>
     </g>
    </g>
    <g id="ytick_6">
     <g id="line2d_15">
      <g>
       <use xlink:href="#meac27eaa57" x="58.945312" y="110.791219" style="stroke: #000000; stroke-width: 0.8"/>
      </g>
     </g>
     <g id="text_16">
      <!-- 0.25 -->
      <g transform="translate(29.679688 114.590437) scale(0.1 -0.1)">
       <use xlink:href="#DejaVuSans-30"/>
       <use xlink:href="#DejaVuSans-2e" x="63.623047"/>
       <use xlink:href="#DejaVuSans-32" x="95.410156"/>
       <use xlink:href="#DejaVuSans-35" x="159.033203"/>
      </g>
     </g>
    </g>
    <g id="ytick_7">
     <g id="line2d_16">
      <g>
       <use xlink:href="#meac27eaa57" x="58.945312" y="77.527219" style="stroke: #000000; stroke-width: 0.8"/>
      </g>
     </g>
     <g id="text_17">
      <!-- 0.50 -->
      <g transform="translate(29.679688 81.326437) scale(0.1 -0.1)">
       <use xlink:href="#DejaVuSans-30"/>
       <use xlink:href="#DejaVuSans-2e" x="63.623047"/>
       <use xlink:href="#DejaVuSans-35" x="95.410156"/>
       <use xlink:href="#DejaVuSans-30" x="159.033203"/>
      </g>
     </g>
    </g>
    <g id="ytick_8">
     <g id="line2d_17">
      <g>
       <use xlink:href="#meac27eaa57" x="58.945312" y="44.263219" style="stroke: #000000; stroke-width: 0.8"/>
      </g>
     </g>
     <g id="text_18">
      <!-- 0.75 -->
      <g transform="translate(29.679688 48.062437) scale(0.1 -0.1)">
       <use xlink:href="#DejaVuSans-30"/>
       <use xlink:href="#DejaVuSans-2e" x="63.623047"/>
       <use xlink:href="#DejaVuSans-37" x="95.410156"/>
       <use xlink:href="#DejaVuSans-35" x="159.033203"/>
      </g>
     </g>
    </g>
    <g id="ytick_9">
     <g id="line2d_18">
      <g>
       <use xlink:href="#meac27eaa57" x="58.945312" y="10.999219" style="stroke: #000000; stroke-width: 0.8"/>
      </g>
     </g>
     <g id="text_19">
      <!-- 1.00 -->
      <g transform="translate(29.679688 14.798437) scale(0.1 -0.1)">
       <use xlink:href="#DejaVuSans-31"/>
       <use xlink:href="#DejaVuSans-2e" x="63.623047"/>
       <use xlink:href="#DejaVuSans-30" x="95.410156"/>
       <use xlink:href="#DejaVuSans-30" x="159.033203"/>
      </g>
     </g>
    </g>
    <g id="text_20">
     <!-- $\mathrm{Im}(\mathrm{E}_s[\langle s|U_B|s\rangle])$ -->
     <g transform="translate(14.9 181.905219) rotate(-90) scale(0.1 -0.1)">
      <defs>
       <path id="DejaVuSans-49" d="M 628 4666 
L 1259 4666 
L 1259 0 
L 628 0 
L 628 4666 
z
" transform="scale(0.015625)"/>
       <path id="DejaVuSans-6d" d="M 3328 2828 
Q 3544 3216 3844 3400 
Q 4144 3584 4550 3584 
Q 5097 3584 5394 3201 
Q 5691 2819 5691 2113 
L 5691 0 
L 5113 0 
L 5113 2094 
Q 5113 2597 4934 2840 
Q 4756 3084 4391 3084 
Q 3944 3084 3684 2787 
Q 3425 2491 3425 1978 
L 3425 0 
L 2847 0 
L 2847 2094 
Q 2847 2600 2669 2842 
Q 2491 3084 2119 3084 
Q 1678 3084 1418 2786 
Q 1159 2488 1159 1978 
L 1159 0 
L 581 0 
L 581 3500 
L 1159 3500 
L 1159 2956 
Q 1356 3278 1631 3431 
Q 1906 3584 2284 3584 
Q 2666 3584 2933 3390 
Q 3200 3197 3328 2828 
z
" transform="scale(0.015625)"/>
      </defs>
      <use xlink:href="#DejaVuSans-49" transform="translate(0 0.578125)"/>
      <use xlink:href="#DejaVuSans-6d" transform="translate(25.867188 0.578125)"/>
      <use xlink:href="#DejaVuSans-28" transform="translate(123.279297 0.578125)"/>
      <use xlink:href="#DejaVuSans-45" transform="translate(162.292969 0.578125)"/>
      <use xlink:href="#DejaVuSans-Oblique-73" transform="translate(226.433594 -15.828125) scale(0.7)"/>
      <use xlink:href="#DejaVuSans-5b" transform="translate(265.637695 0.578125)"/>
      <use xlink:href="#DejaVuSans-27e8" transform="translate(304.651367 0.578125)"/>
      <use xlink:href="#DejaVuSans-Oblique-73" transform="translate(343.665039 0.578125)"/>
      <use xlink:href="#DejaVuSans-7c" transform="translate(395.764648 0.578125)"/>
      <use xlink:href="#DejaVuSans-Oblique-55" transform="translate(429.456055 0.578125)"/>
      <use xlink:href="#DejaVuSans-Oblique-42" transform="translate(502.649414 -15.828125) scale(0.7)"/>
      <use xlink:href="#DejaVuSans-7c" transform="translate(553.40625 0.578125)"/>
      <use xlink:href="#DejaVuSans-Oblique-73" transform="translate(587.097656 0.578125)"/>
      <use xlink:href="#DejaVuSans-27e9" transform="translate(639.197266 0.578125)"/>
      <use xlink:href="#DejaVuSans-5d" transform="translate(678.210938 0.578125)"/>
      <use xlink:href="#DejaVuSans-29" transform="translate(717.224609 0.578125)"/>
     </g>
    </g>
   </g>
   <g id="line2d_19">
    <defs>
     <path id="mc4721a1ace" d="M 0 -3.5 
L -0.785799 -1.081559 
L -3.328698 -1.081559 
L -1.271449 0.413119 
L -2.057248 2.831559 
L -0 1.336881 
L 2.057248 2.831559 
L 1.271449 0.413119 
L 3.328698 -1.081559 
L 0.785799 -1.081559 
z
" style="stroke: #195f90; stroke-linejoin: bevel"/>
    </defs>
    <g clip-path="url(#pfcbcc2bb54)">
     <use xlink:href="#mc4721a1ace" x="174.339138" y="252.772389" style="fill: #195f90; stroke: #195f90; stroke-linejoin: bevel"/>
    </g>
   </g>
   <g id="line2d_20">
    <defs>
     <path id="mf69d978259" d="M 0 -3.5 
L -0.785799 -1.081559 
L -3.328698 -1.081559 
L -1.271449 0.413119 
L -2.057248 2.831559 
L -0 1.336881 
L 2.057248 2.831559 
L 1.271449 0.413119 
L 3.328698 -1.081559 
L 0.785799 -1.081559 
z
" style="stroke: #238023; stroke-linejoin: bevel"/>
    </defs>
    <g clip-path="url(#pfcbcc2bb54)">
     <use xlink:href="#mf69d978259" x="121.446194" y="124.70779" style="fill: #238023; stroke: #238023; stroke-linejoin: bevel"/>
    </g>
   </g>
   <g id="line2d_21">
    <defs>
     <path id="maceeb2ed27" d="M 0 -3.5 
L -0.785799 -1.081559 
L -3.328698 -1.081559 
L -1.271449 0.413119 
L -2.057248 2.831559 
L -0 1.336881 
L 2.057248 2.831559 
L 1.271449 0.413119 
L 3.328698 -1.081559 
L 0.785799 -1.081559 
z
" style="stroke: #cc660b; stroke-linejoin: bevel"/>
    </defs>
    <g clip-path="url(#pfcbcc2bb54)">
     <use xlink:href="#maceeb2ed27" x="133.722784" y="128.886835" style="fill: #cc660b; stroke: #cc660b; stroke-linejoin: bevel"/>
    </g>
   </g>
   <g id="line2d_22">
    <defs>
     <path id="mea00dda62c" d="M -0 3.5 
L 3.5 -3.5 
L -3.5 -3.5 
z
" style="stroke: #238023; stroke-linejoin: miter"/>
    </defs>
    <g clip-path="url(#pfcbcc2bb54)">
     <use xlink:href="#mea00dda62c" x="265.565928" y="119.89505" style="fill: #238023; stroke: #238023; stroke-linejoin: miter"/>
    </g>
   </g>
   <g id="line2d_23">
    <defs>
     <path id="ma37d956241" d="M -0 3.5 
L 3.5 -3.5 
L -3.5 -3.5 
z
" style="stroke: #cc660b; stroke-linejoin: miter"/>
    </defs>
    <g clip-path="url(#pfcbcc2bb54)">
     <use xlink:href="#ma37d956241" x="253.207072" y="125.693491" style="fill: #cc660b; stroke: #cc660b; stroke-linejoin: miter"/>
    </g>
   </g>
   <g id="line2d_24">
    <defs>
     <path id="m9af3d0c728" d="M 0 -3.5 
L -0.785799 -1.081559 
L -3.328698 -1.081559 
L -1.271449 0.413119 
L -2.057248 2.831559 
L -0 1.336881 
L 2.057248 2.831559 
L 1.271449 0.413119 
L 3.328698 -1.081559 
L 0.785799 -1.081559 
z
" style="stroke: #765297; stroke-linejoin: bevel"/>
    </defs>
    <g clip-path="url(#pfcbcc2bb54)">
     <use xlink:href="#m9af3d0c728" x="170.195533" y="216.155254" style="fill: #765297; stroke: #765297; stroke-linejoin: bevel"/>
    </g>
   </g>
   <g id="line2d_25">
    <defs>
     <path id="ma73bd29499" d="M 0 -3.5 
L -0.785799 -1.081559 
L -3.328698 -1.081559 
L -1.271449 0.413119 
L -2.057248 2.831559 
L -0 1.336881 
L 2.057248 2.831559 
L 1.271449 0.413119 
L 3.328698 -1.081559 
L 0.785799 -1.081559 
z
" style="stroke: #ab1f20; stroke-linejoin: bevel"/>
    </defs>
    <g clip-path="url(#pfcbcc2bb54)">
     <use xlink:href="#ma73bd29499" x="175.17249" y="203.818695" style="fill: #ab1f20; stroke: #ab1f20; stroke-linejoin: bevel"/>
    </g>
   </g>
   <g id="line2d_26">
    <path d="M 58.945312 144.055219 
L 325.057312 144.055219 
" clip-path="url(#pfcbcc2bb54)" style="fill: none; stroke: #000000; stroke-linecap: square"/>
   </g>
   <g id="line2d_27">
    <path d="M 192.001312 277.111219 
L 192.001312 10.999219 
" clip-path="url(#pfcbcc2bb54)" style="fill: none; stroke: #000000; stroke-linecap: square"/>
   </g>
   <g id="line2d_28">
    <path d="M 58.945312 277.111219 
L 325.057312 277.111219 
" clip-path="url(#pfcbcc2bb54)" style="fill: none; stroke: #000000; stroke-opacity: 0.2; stroke-linecap: square"/>
   </g>
   <g id="line2d_29">
    <path d="M 58.945312 277.111219 
L 58.945312 10.999219 
" clip-path="url(#pfcbcc2bb54)" style="fill: none; stroke: #000000; stroke-opacity: 0.2; stroke-linecap: square"/>
   </g>
   <g id="line2d_30">
    <path d="M 58.945312 243.847219 
L 325.057312 243.847219 
" clip-path="url(#pfcbcc2bb54)" style="fill: none; stroke: #000000; stroke-opacity: 0.2; stroke-linecap: square"/>
   </g>
   <g id="line2d_31">
    <path d="M 92.209312 277.111219 
L 92.209312 10.999219 
" clip-path="url(#pfcbcc2bb54)" style="fill: none; stroke: #000000; stroke-opacity: 0.2; stroke-linecap: square"/>
   </g>
   <g id="line2d_32">
    <path d="M 58.945312 210.583219 
L 325.057312 210.583219 
" clip-path="url(#pfcbcc2bb54)" style="fill: none; stroke: #000000; stroke-opacity: 0.2; stroke-linecap: square"/>
   </g>
   <g id="line2d_33">
    <path d="M 125.473312 277.111219 
L 125.473312 10.999219 
" clip-path="url(#pfcbcc2bb54)" style="fill: none; stroke: #000000; stroke-opacity: 0.2; stroke-linecap: square"/>
   </g>
   <g id="line2d_34">
    <path d="M 58.945312 177.319219 
L 325.057312 177.319219 
" clip-path="url(#pfcbcc2bb54)" style="fill: none; stroke: #000000; stroke-opacity: 0.2; stroke-linecap: square"/>
   </g>
   <g id="line2d_35">
    <path d="M 158.737312 277.111219 
L 158.737312 10.999219 
" clip-path="url(#pfcbcc2bb54)" style="fill: none; stroke: #000000; stroke-opacity: 0.2; stroke-linecap: square"/>
   </g>
   <g id="line2d_36">
    <path d="M 58.945312 144.055219 
L 325.057312 144.055219 
" clip-path="url(#pfcbcc2bb54)" style="fill: none; stroke: #000000; stroke-opacity: 0.2; stroke-linecap: square"/>
   </g>
   <g id="line2d_37">
    <path d="M 192.001312 277.111219 
L 192.001312 10.999219 
" clip-path="url(#pfcbcc2bb54)" style="fill: none; stroke: #000000; stroke-opacity: 0.2; stroke-linecap: square"/>
   </g>
   <g id="line2d_38">
    <path d="M 58.945312 110.791219 
L 325.057312 110.791219 
" clip-path="url(#pfcbcc2bb54)" style="fill: none; stroke: #000000; stroke-opacity: 0.2; stroke-linecap: square"/>
   </g>
   <g id="line2d_39">
    <path d="M 225.265312 277.111219 
L 225.265312 10.999219 
" clip-path="url(#pfcbcc2bb54)" style="fill: none; stroke: #000000; stroke-opacity: 0.2; stroke-linecap: square"/>
   </g>
   <g id="line2d_40">
    <path d="M 58.945312 77.527219 
L 325.057312 77.527219 
" clip-path="url(#pfcbcc2bb54)" style="fill: none; stroke: #000000; stroke-opacity: 0.2; stroke-linecap: square"/>
   </g>
   <g id="line2d_41">
    <path d="M 258.529312 277.111219 
L 258.529312 10.999219 
" clip-path="url(#pfcbcc2bb54)" style="fill: none; stroke: #000000; stroke-opacity: 0.2; stroke-linecap: square"/>
   </g>
   <g id="line2d_42">
    <path d="M 58.945312 44.263219 
L 325.057312 44.263219 
" clip-path="url(#pfcbcc2bb54)" style="fill: none; stroke: #000000; stroke-opacity: 0.2; stroke-linecap: square"/>
   </g>
   <g id="line2d_43">
    <path d="M 291.793312 277.111219 
L 291.793312 10.999219 
" clip-path="url(#pfcbcc2bb54)" style="fill: none; stroke: #000000; stroke-opacity: 0.2; stroke-linecap: square"/>
   </g>
   <g id="patch_21">
    <path d="M 58.945312 277.111219 
L 58.945312 10.999219 
" style="fill: none; stroke: #000000; stroke-width: 0.8; stroke-linejoin: miter; stroke-linecap: square"/>
   </g>
   <g id="patch_22">
    <path d="M 58.945312 277.111219 
L 325.057312 277.111219 
" style="fill: none; stroke: #000000; stroke-width: 0.8; stroke-linejoin: miter; stroke-linecap: square"/>
   </g>
   <g id="legend_1">
    <g id="patch_23">
     <path d="M 52.875531 333.626456 
L 72.875531 333.626456 
L 72.875531 326.626456 
L 52.875531 326.626456 
z
" style="fill: #1f77b4"/>
    </g>
    <g id="text_21">
     <!-- Ground Truth -->
     <g transform="translate(80.875531 333.626456) scale(0.1 -0.1)">
      <defs>
       <path id="DejaVuSans-47" d="M 3809 666 
L 3809 1919 
L 2778 1919 
L 2778 2438 
L 4434 2438 
L 4434 434 
Q 4069 175 3628 42 
Q 3188 -91 2688 -91 
Q 1594 -91 976 548 
Q 359 1188 359 2328 
Q 359 3472 976 4111 
Q 1594 4750 2688 4750 
Q 3144 4750 3555 4637 
Q 3966 4525 4313 4306 
L 4313 3634 
Q 3963 3931 3569 4081 
Q 3175 4231 2741 4231 
Q 1884 4231 1454 3753 
Q 1025 3275 1025 2328 
Q 1025 1384 1454 906 
Q 1884 428 2741 428 
Q 3075 428 3337 486 
Q 3600 544 3809 666 
z
" transform="scale(0.015625)"/>
       <path id="DejaVuSans-72" d="M 2631 2963 
Q 2534 3019 2420 3045 
Q 2306 3072 2169 3072 
Q 1681 3072 1420 2755 
Q 1159 2438 1159 1844 
L 1159 0 
L 581 0 
L 581 3500 
L 1159 3500 
L 1159 2956 
Q 1341 3275 1631 3429 
Q 1922 3584 2338 3584 
Q 2397 3584 2469 3576 
Q 2541 3569 2628 3553 
L 2631 2963 
z
" transform="scale(0.015625)"/>
       <path id="DejaVuSans-6f" d="M 1959 3097 
Q 1497 3097 1228 2736 
Q 959 2375 959 1747 
Q 959 1119 1226 758 
Q 1494 397 1959 397 
Q 2419 397 2687 759 
Q 2956 1122 2956 1747 
Q 2956 2369 2687 2733 
Q 2419 3097 1959 3097 
z
M 1959 3584 
Q 2709 3584 3137 3096 
Q 3566 2609 3566 1747 
Q 3566 888 3137 398 
Q 2709 -91 1959 -91 
Q 1206 -91 779 398 
Q 353 888 353 1747 
Q 353 2609 779 3096 
Q 1206 3584 1959 3584 
z
" transform="scale(0.015625)"/>
       <path id="DejaVuSans-75" d="M 544 1381 
L 544 3500 
L 1119 3500 
L 1119 1403 
Q 1119 906 1312 657 
Q 1506 409 1894 409 
Q 2359 409 2629 706 
Q 2900 1003 2900 1516 
L 2900 3500 
L 3475 3500 
L 3475 0 
L 2900 0 
L 2900 538 
Q 2691 219 2414 64 
Q 2138 -91 1772 -91 
Q 1169 -91 856 284 
Q 544 659 544 1381 
z
M 1991 3584 
L 1991 3584 
z
" transform="scale(0.015625)"/>
       <path id="DejaVuSans-6e" d="M 3513 2113 
L 3513 0 
L 2938 0 
L 2938 2094 
Q 2938 2591 2744 2837 
Q 2550 3084 2163 3084 
Q 1697 3084 1428 2787 
Q 1159 2491 1159 1978 
L 1159 0 
L 581 0 
L 581 3500 
L 1159 3500 
L 1159 2956 
Q 1366 3272 1645 3428 
Q 1925 3584 2291 3584 
Q 2894 3584 3203 3211 
Q 3513 2838 3513 2113 
z
" transform="scale(0.015625)"/>
       <path id="DejaVuSans-64" d="M 2906 2969 
L 2906 4863 
L 3481 4863 
L 3481 0 
L 2906 0 
L 2906 525 
Q 2725 213 2448 61 
Q 2172 -91 1784 -91 
Q 1150 -91 751 415 
Q 353 922 353 1747 
Q 353 2572 751 3078 
Q 1150 3584 1784 3584 
Q 2172 3584 2448 3432 
Q 2725 3281 2906 2969 
z
M 947 1747 
Q 947 1113 1208 752 
Q 1469 391 1925 391 
Q 2381 391 2643 752 
Q 2906 1113 2906 1747 
Q 2906 2381 2643 2742 
Q 2381 3103 1925 3103 
Q 1469 3103 1208 2742 
Q 947 2381 947 1747 
z
" transform="scale(0.015625)"/>
       <path id="DejaVuSans-20" transform="scale(0.015625)"/>
       <path id="DejaVuSans-54" d="M -19 4666 
L 3928 4666 
L 3928 4134 
L 2272 4134 
L 2272 0 
L 1638 0 
L 1638 4134 
L -19 4134 
L -19 4666 
z
" transform="scale(0.015625)"/>
       <path id="DejaVuSans-74" d="M 1172 4494 
L 1172 3500 
L 2356 3500 
L 2356 3053 
L 1172 3053 
L 1172 1153 
Q 1172 725 1289 603 
Q 1406 481 1766 481 
L 2356 481 
L 2356 0 
L 1766 0 
Q 1100 0 847 248 
Q 594 497 594 1153 
L 594 3053 
L 172 3053 
L 172 3500 
L 594 3500 
L 594 4494 
L 1172 4494 
z
" transform="scale(0.015625)"/>
       <path id="DejaVuSans-68" d="M 3513 2113 
L 3513 0 
L 2938 0 
L 2938 2094 
Q 2938 2591 2744 2837 
Q 2550 3084 2163 3084 
Q 1697 3084 1428 2787 
Q 1159 2491 1159 1978 
L 1159 0 
L 581 0 
L 581 4863 
L 1159 4863 
L 1159 2956 
Q 1366 3272 1645 3428 
Q 1925 3584 2291 3584 
Q 2894 3584 3203 3211 
Q 3513 2838 3513 2113 
z
" transform="scale(0.015625)"/>
      </defs>
      <use xlink:href="#DejaVuSans-47"/>
      <use xlink:href="#DejaVuSans-72" x="77.490234"/>
      <use xlink:href="#DejaVuSans-6f" x="116.353516"/>
      <use xlink:href="#DejaVuSans-75" x="177.535156"/>
      <use xlink:href="#DejaVuSans-6e" x="240.914062"/>
      <use xlink:href="#DejaVuSans-64" x="304.292969"/>
      <use xlink:href="#DejaVuSans-20" x="367.769531"/>
      <use xlink:href="#DejaVuSans-54" x="399.556641"/>
      <use xlink:href="#DejaVuSans-72" x="445.890625"/>
      <use xlink:href="#DejaVuSans-75" x="487.003906"/>
      <use xlink:href="#DejaVuSans-74" x="550.382812"/>
      <use xlink:href="#DejaVuSans-68" x="589.591797"/>
     </g>
    </g>
    <g id="patch_24">
     <path d="M 52.875531 348.304581 
L 72.875531 348.304581 
L 72.875531 341.304581 
L 52.875531 341.304581 
z
" style="fill: #ff7f0e"/>
    </g>
    <g id="text_22">
     <!-- Unmitigated -->
     <g transform="translate(80.875531 348.304581) scale(0.1 -0.1)">
      <defs>
       <path id="DejaVuSans-55" d="M 556 4666 
L 1191 4666 
L 1191 1831 
Q 1191 1081 1462 751 
Q 1734 422 2344 422 
Q 2950 422 3222 751 
Q 3494 1081 3494 1831 
L 3494 4666 
L 4128 4666 
L 4128 1753 
Q 4128 841 3676 375 
Q 3225 -91 2344 -91 
Q 1459 -91 1007 375 
Q 556 841 556 1753 
L 556 4666 
z
" transform="scale(0.015625)"/>
       <path id="DejaVuSans-69" d="M 603 3500 
L 1178 3500 
L 1178 0 
L 603 0 
L 603 3500 
z
M 603 4863 
L 1178 4863 
L 1178 4134 
L 603 4134 
L 603 4863 
z
" transform="scale(0.015625)"/>
       <path id="DejaVuSans-67" d="M 2906 1791 
Q 2906 2416 2648 2759 
Q 2391 3103 1925 3103 
Q 1463 3103 1205 2759 
Q 947 2416 947 1791 
Q 947 1169 1205 825 
Q 1463 481 1925 481 
Q 2391 481 2648 825 
Q 2906 1169 2906 1791 
z
M 3481 434 
Q 3481 -459 3084 -895 
Q 2688 -1331 1869 -1331 
Q 1566 -1331 1297 -1286 
Q 1028 -1241 775 -1147 
L 775 -588 
Q 1028 -725 1275 -790 
Q 1522 -856 1778 -856 
Q 2344 -856 2625 -561 
Q 2906 -266 2906 331 
L 2906 616 
Q 2728 306 2450 153 
Q 2172 0 1784 0 
Q 1141 0 747 490 
Q 353 981 353 1791 
Q 353 2603 747 3093 
Q 1141 3584 1784 3584 
Q 2172 3584 2450 3431 
Q 2728 3278 2906 2969 
L 2906 3500 
L 3481 3500 
L 3481 434 
z
" transform="scale(0.015625)"/>
       <path id="DejaVuSans-61" d="M 2194 1759 
Q 1497 1759 1228 1600 
Q 959 1441 959 1056 
Q 959 750 1161 570 
Q 1363 391 1709 391 
Q 2188 391 2477 730 
Q 2766 1069 2766 1631 
L 2766 1759 
L 2194 1759 
z
M 3341 1997 
L 3341 0 
L 2766 0 
L 2766 531 
Q 2569 213 2275 61 
Q 1981 -91 1556 -91 
Q 1019 -91 701 211 
Q 384 513 384 1019 
Q 384 1609 779 1909 
Q 1175 2209 1959 2209 
L 2766 2209 
L 2766 2266 
Q 2766 2663 2505 2880 
Q 2244 3097 1772 3097 
Q 1472 3097 1187 3025 
Q 903 2953 641 2809 
L 641 3341 
Q 956 3463 1253 3523 
Q 1550 3584 1831 3584 
Q 2591 3584 2966 3190 
Q 3341 2797 3341 1997 
z
" transform="scale(0.015625)"/>
      </defs>
      <use xlink:href="#DejaVuSans-55"/>
      <use xlink:href="#DejaVuSans-6e" x="73.193359"/>
      <use xlink:href="#DejaVuSans-6d" x="136.572266"/>
      <use xlink:href="#DejaVuSans-69" x="233.984375"/>
      <use xlink:href="#DejaVuSans-74" x="261.767578"/>
      <use xlink:href="#DejaVuSans-69" x="300.976562"/>
      <use xlink:href="#DejaVuSans-67" x="328.759766"/>
      <use xlink:href="#DejaVuSans-61" x="392.236328"/>
      <use xlink:href="#DejaVuSans-74" x="453.515625"/>
      <use xlink:href="#DejaVuSans-65" x="492.724609"/>
      <use xlink:href="#DejaVuSans-64" x="554.248047"/>
     </g>
    </g>
    <g id="patch_25">
     <path d="M 52.875531 362.982706 
L 72.875531 362.982706 
L 72.875531 355.982706 
L 52.875531 355.982706 
z
" style="fill: #2ca02c"/>
    </g>
    <g id="text_23">
     <!-- + Error Detection -->
     <g transform="translate(80.875531 362.982706) scale(0.1 -0.1)">
      <defs>
       <path id="DejaVuSans-2b" d="M 2944 4013 
L 2944 2272 
L 4684 2272 
L 4684 1741 
L 2944 1741 
L 2944 0 
L 2419 0 
L 2419 1741 
L 678 1741 
L 678 2272 
L 2419 2272 
L 2419 4013 
L 2944 4013 
z
" transform="scale(0.015625)"/>
       <path id="DejaVuSans-44" d="M 1259 4147 
L 1259 519 
L 2022 519 
Q 2988 519 3436 956 
Q 3884 1394 3884 2338 
Q 3884 3275 3436 3711 
Q 2988 4147 2022 4147 
L 1259 4147 
z
M 628 4666 
L 1925 4666 
Q 3281 4666 3915 4102 
Q 4550 3538 4550 2338 
Q 4550 1131 3912 565 
Q 3275 0 1925 0 
L 628 0 
L 628 4666 
z
" transform="scale(0.015625)"/>
       <path id="DejaVuSans-63" d="M 3122 3366 
L 3122 2828 
Q 2878 2963 2633 3030 
Q 2388 3097 2138 3097 
Q 1578 3097 1268 2742 
Q 959 2388 959 1747 
Q 959 1106 1268 751 
Q 1578 397 2138 397 
Q 2388 397 2633 464 
Q 2878 531 3122 666 
L 3122 134 
Q 2881 22 2623 -34 
Q 2366 -91 2075 -91 
Q 1284 -91 818 406 
Q 353 903 353 1747 
Q 353 2603 823 3093 
Q 1294 3584 2113 3584 
Q 2378 3584 2631 3529 
Q 2884 3475 3122 3366 
z
" transform="scale(0.015625)"/>
      </defs>
      <use xlink:href="#DejaVuSans-2b"/>
      <use xlink:href="#DejaVuSans-20" x="83.789062"/>
      <use xlink:href="#DejaVuSans-45" x="115.576172"/>
      <use xlink:href="#DejaVuSans-72" x="178.759766"/>
      <use xlink:href="#DejaVuSans-72" x="218.123047"/>
      <use xlink:href="#DejaVuSans-6f" x="256.986328"/>
      <use xlink:href="#DejaVuSans-72" x="318.167969"/>
      <use xlink:href="#DejaVuSans-20" x="359.28125"/>
      <use xlink:href="#DejaVuSans-44" x="391.068359"/>
      <use xlink:href="#DejaVuSans-65" x="468.070312"/>
      <use xlink:href="#DejaVuSans-74" x="529.59375"/>
      <use xlink:href="#DejaVuSans-65" x="568.802734"/>
      <use xlink:href="#DejaVuSans-63" x="630.326172"/>
      <use xlink:href="#DejaVuSans-74" x="685.306641"/>
      <use xlink:href="#DejaVuSans-69" x="724.515625"/>
      <use xlink:href="#DejaVuSans-6f" x="752.298828"/>
      <use xlink:href="#DejaVuSans-6e" x="813.480469"/>
     </g>
    </g>
    <g id="patch_26">
     <path d="M 52.875531 377.660831 
L 72.875531 377.660831 
L 72.875531 370.660831 
L 52.875531 370.660831 
z
" style="fill: #d62728"/>
    </g>
    <g id="text_24">
     <!-- + Conjugate Trick -->
     <g transform="translate(80.875531 377.660831) scale(0.1 -0.1)">
      <defs>
       <path id="DejaVuSans-43" d="M 4122 4306 
L 4122 3641 
Q 3803 3938 3442 4084 
Q 3081 4231 2675 4231 
Q 1875 4231 1450 3742 
Q 1025 3253 1025 2328 
Q 1025 1406 1450 917 
Q 1875 428 2675 428 
Q 3081 428 3442 575 
Q 3803 722 4122 1019 
L 4122 359 
Q 3791 134 3420 21 
Q 3050 -91 2638 -91 
Q 1578 -91 968 557 
Q 359 1206 359 2328 
Q 359 3453 968 4101 
Q 1578 4750 2638 4750 
Q 3056 4750 3426 4639 
Q 3797 4528 4122 4306 
z
" transform="scale(0.015625)"/>
       <path id="DejaVuSans-6a" d="M 603 3500 
L 1178 3500 
L 1178 -63 
Q 1178 -731 923 -1031 
Q 669 -1331 103 -1331 
L -116 -1331 
L -116 -844 
L 38 -844 
Q 366 -844 484 -692 
Q 603 -541 603 -63 
L 603 3500 
z
M 603 4863 
L 1178 4863 
L 1178 4134 
L 603 4134 
L 603 4863 
z
" transform="scale(0.015625)"/>
       <path id="DejaVuSans-6b" d="M 581 4863 
L 1159 4863 
L 1159 1991 
L 2875 3500 
L 3609 3500 
L 1753 1863 
L 3688 0 
L 2938 0 
L 1159 1709 
L 1159 0 
L 581 0 
L 581 4863 
z
" transform="scale(0.015625)"/>
      </defs>
      <use xlink:href="#DejaVuSans-2b"/>
      <use xlink:href="#DejaVuSans-20" x="83.789062"/>
      <use xlink:href="#DejaVuSans-43" x="115.576172"/>
      <use xlink:href="#DejaVuSans-6f" x="185.400391"/>
      <use xlink:href="#DejaVuSans-6e" x="246.582031"/>
      <use xlink:href="#DejaVuSans-6a" x="309.960938"/>
      <use xlink:href="#DejaVuSans-75" x="337.744141"/>
      <use xlink:href="#DejaVuSans-67" x="401.123047"/>
      <use xlink:href="#DejaVuSans-61" x="464.599609"/>
      <use xlink:href="#DejaVuSans-74" x="525.878906"/>
      <use xlink:href="#DejaVuSans-65" x="565.087891"/>
      <use xlink:href="#DejaVuSans-20" x="626.611328"/>
      <use xlink:href="#DejaVuSans-54" x="658.398438"/>
      <use xlink:href="#DejaVuSans-72" x="704.732422"/>
      <use xlink:href="#DejaVuSans-69" x="745.845703"/>
      <use xlink:href="#DejaVuSans-63" x="773.628906"/>
      <use xlink:href="#DejaVuSans-6b" x="828.609375"/>
     </g>
    </g>
    <g id="patch_27">
     <path d="M 52.875531 392.338956 
L 72.875531 392.338956 
L 72.875531 385.338956 
L 52.875531 385.338956 
z
" style="fill: #9467bd"/>
    </g>
    <g id="text_25">
     <!-- + Both -->
     <g transform="translate(80.875531 392.338956) scale(0.1 -0.1)">
      <defs>
       <path id="DejaVuSans-42" d="M 1259 2228 
L 1259 519 
L 2272 519 
Q 2781 519 3026 730 
Q 3272 941 3272 1375 
Q 3272 1813 3026 2020 
Q 2781 2228 2272 2228 
L 1259 2228 
z
M 1259 4147 
L 1259 2741 
L 2194 2741 
Q 2656 2741 2882 2914 
Q 3109 3088 3109 3444 
Q 3109 3797 2882 3972 
Q 2656 4147 2194 4147 
L 1259 4147 
z
M 628 4666 
L 2241 4666 
Q 2963 4666 3353 4366 
Q 3744 4066 3744 3513 
Q 3744 3084 3544 2831 
Q 3344 2578 2956 2516 
Q 3422 2416 3680 2098 
Q 3938 1781 3938 1306 
Q 3938 681 3513 340 
Q 3088 0 2303 0 
L 628 0 
L 628 4666 
z
" transform="scale(0.015625)"/>
      </defs>
      <use xlink:href="#DejaVuSans-2b"/>
      <use xlink:href="#DejaVuSans-20" x="83.789062"/>
      <use xlink:href="#DejaVuSans-42" x="115.576172"/>
      <use xlink:href="#DejaVuSans-6f" x="184.179688"/>
      <use xlink:href="#DejaVuSans-74" x="245.361328"/>
      <use xlink:href="#DejaVuSans-68" x="284.570312"/>
     </g>
    </g>
    <g id="line2d_44">
     <defs>
      <path id="m92c9ac185f" d="M 0 -3.5 
L -0.785799 -1.081559 
L -3.328698 -1.081559 
L -1.271449 0.413119 
L -2.057248 2.831559 
L -0 1.336881 
L 2.057248 2.831559 
L 1.271449 0.413119 
L 3.328698 -1.081559 
L 0.785799 -1.081559 
z
" style="stroke: #000000; stroke-linejoin: bevel"/>
     </defs>
     <g>
      <use xlink:href="#m92c9ac185f" x="199.527094" y="330.126456" style="stroke: #000000; stroke-linejoin: bevel"/>
     </g>
    </g>
    <g id="text_26">
     <!-- Original Braid -->
     <g transform="translate(217.527094 333.626456) scale(0.1 -0.1)">
      <defs>
       <path id="DejaVuSans-4f" d="M 2522 4238 
Q 1834 4238 1429 3725 
Q 1025 3213 1025 2328 
Q 1025 1447 1429 934 
Q 1834 422 2522 422 
Q 3209 422 3611 934 
Q 4013 1447 4013 2328 
Q 4013 3213 3611 3725 
Q 3209 4238 2522 4238 
z
M 2522 4750 
Q 3503 4750 4090 4092 
Q 4678 3434 4678 2328 
Q 4678 1225 4090 567 
Q 3503 -91 2522 -91 
Q 1538 -91 948 565 
Q 359 1222 359 2328 
Q 359 3434 948 4092 
Q 1538 4750 2522 4750 
z
" transform="scale(0.015625)"/>
       <path id="DejaVuSans-6c" d="M 603 4863 
L 1178 4863 
L 1178 0 
L 603 0 
L 603 4863 
z
" transform="scale(0.015625)"/>
      </defs>
      <use xlink:href="#DejaVuSans-4f"/>
      <use xlink:href="#DejaVuSans-72" x="78.710938"/>
      <use xlink:href="#DejaVuSans-69" x="119.824219"/>
      <use xlink:href="#DejaVuSans-67" x="147.607422"/>
      <use xlink:href="#DejaVuSans-69" x="211.083984"/>
      <use xlink:href="#DejaVuSans-6e" x="238.867188"/>
      <use xlink:href="#DejaVuSans-61" x="302.246094"/>
      <use xlink:href="#DejaVuSans-6c" x="363.525391"/>
      <use xlink:href="#DejaVuSans-20" x="391.308594"/>
      <use xlink:href="#DejaVuSans-42" x="423.095703"/>
      <use xlink:href="#DejaVuSans-72" x="491.699219"/>
      <use xlink:href="#DejaVuSans-61" x="532.8125"/>
      <use xlink:href="#DejaVuSans-69" x="594.091797"/>
      <use xlink:href="#DejaVuSans-64" x="621.875"/>
     </g>
    </g>
    <g id="line2d_45">
     <defs>
      <path id="m978d95b49a" d="M -0 3.5 
L 3.5 -3.5 
L -3.5 -3.5 
z
" style="stroke: #000000; stroke-linejoin: miter"/>
     </defs>
     <g>
      <use xlink:href="#m978d95b49a" x="199.527094" y="344.804581" style="stroke: #000000; stroke-linejoin: miter"/>
     </g>
    </g>
    <g id="text_27">
     <!-- Conjugate Braid -->
     <g transform="translate(217.527094 348.304581) scale(0.1 -0.1)">
      <use xlink:href="#DejaVuSans-43"/>
      <use xlink:href="#DejaVuSans-6f" x="69.824219"/>
      <use xlink:href="#DejaVuSans-6e" x="131.005859"/>
      <use xlink:href="#DejaVuSans-6a" x="194.384766"/>
      <use xlink:href="#DejaVuSans-75" x="222.167969"/>
      <use xlink:href="#DejaVuSans-67" x="285.546875"/>
      <use xlink:href="#DejaVuSans-61" x="349.023438"/>
      <use xlink:href="#DejaVuSans-74" x="410.302734"/>
      <use xlink:href="#DejaVuSans-65" x="449.511719"/>
      <use xlink:href="#DejaVuSans-20" x="511.035156"/>
      <use xlink:href="#DejaVuSans-42" x="542.822266"/>
      <use xlink:href="#DejaVuSans-72" x="611.425781"/>
      <use xlink:href="#DejaVuSans-61" x="652.539062"/>
      <use xlink:href="#DejaVuSans-69" x="713.818359"/>
      <use xlink:href="#DejaVuSans-64" x="741.601562"/>
     </g>
    </g>
    <g id="patch_28">
     <path d="M 189.527094 362.984269 
L 209.527094 362.984269 
L 209.527094 355.984269 
L 189.527094 355.984269 
z
" style="opacity: 0.2"/>
    </g>
    <g id="text_28">
     <!-- 3-$\sigma$ Confidence Region -->
     <g transform="translate(217.527094 362.984269) scale(0.1 -0.1)">
      <defs>
       <path id="DejaVuSans-33" d="M 2597 2516 
Q 3050 2419 3304 2112 
Q 3559 1806 3559 1356 
Q 3559 666 3084 287 
Q 2609 -91 1734 -91 
Q 1441 -91 1130 -33 
Q 819 25 488 141 
L 488 750 
Q 750 597 1062 519 
Q 1375 441 1716 441 
Q 2309 441 2620 675 
Q 2931 909 2931 1356 
Q 2931 1769 2642 2001 
Q 2353 2234 1838 2234 
L 1294 2234 
L 1294 2753 
L 1863 2753 
Q 2328 2753 2575 2939 
Q 2822 3125 2822 3475 
Q 2822 3834 2567 4026 
Q 2313 4219 1838 4219 
Q 1578 4219 1281 4162 
Q 984 4106 628 3988 
L 628 4550 
Q 988 4650 1302 4700 
Q 1616 4750 1894 4750 
Q 2613 4750 3031 4423 
Q 3450 4097 3450 3541 
Q 3450 3153 3228 2886 
Q 3006 2619 2597 2516 
z
" transform="scale(0.015625)"/>
       <path id="DejaVuSans-2d" d="M 313 2009 
L 1997 2009 
L 1997 1497 
L 313 1497 
L 313 2009 
z
" transform="scale(0.015625)"/>
       <path id="DejaVuSans-Oblique-3c3" d="M 2219 3044 
Q 1744 3044 1422 2700 
Q 1081 2341 969 1747 
Q 844 1119 1044 756 
Q 1241 397 1706 397 
Q 2166 397 2503 759 
Q 2844 1122 2966 1747 
Q 3075 2319 2881 2700 
Q 2700 3044 2219 3044 
z
M 2309 3503 
L 4219 3500 
L 4106 2925 
L 3463 2925 
Q 3706 2438 3575 1747 
Q 3406 888 2884 400 
Q 2359 -91 1609 -91 
Q 856 -91 525 400 
Q 194 888 363 1747 
Q 528 2609 1050 3097 
Q 1484 3503 2309 3503 
z
" transform="scale(0.015625)"/>
       <path id="DejaVuSans-66" d="M 2375 4863 
L 2375 4384 
L 1825 4384 
Q 1516 4384 1395 4259 
Q 1275 4134 1275 3809 
L 1275 3500 
L 2222 3500 
L 2222 3053 
L 1275 3053 
L 1275 0 
L 697 0 
L 697 3053 
L 147 3053 
L 147 3500 
L 697 3500 
L 697 3744 
Q 697 4328 969 4595 
Q 1241 4863 1831 4863 
L 2375 4863 
z
" transform="scale(0.015625)"/>
      </defs>
      <use xlink:href="#DejaVuSans-33" transform="translate(0 0.015625)"/>
      <use xlink:href="#DejaVuSans-2d" transform="translate(63.623047 0.015625)"/>
      <use xlink:href="#DejaVuSans-Oblique-3c3" transform="translate(99.707031 0.015625)"/>
      <use xlink:href="#DejaVuSans-20" transform="translate(163.085938 0.015625)"/>
      <use xlink:href="#DejaVuSans-43" transform="translate(194.873047 0.015625)"/>
      <use xlink:href="#DejaVuSans-6f" transform="translate(264.697266 0.015625)"/>
      <use xlink:href="#DejaVuSans-6e" transform="translate(325.878906 0.015625)"/>
      <use xlink:href="#DejaVuSans-66" transform="translate(389.257812 0.015625)"/>
      <use xlink:href="#DejaVuSans-69" transform="translate(424.462891 0.015625)"/>
      <use xlink:href="#DejaVuSans-64" transform="translate(452.246094 0.015625)"/>
      <use xlink:href="#DejaVuSans-65" transform="translate(515.722656 0.015625)"/>
      <use xlink:href="#DejaVuSans-6e" transform="translate(577.246094 0.015625)"/>
      <use xlink:href="#DejaVuSans-63" transform="translate(640.625 0.015625)"/>
      <use xlink:href="#DejaVuSans-65" transform="translate(695.605469 0.015625)"/>
      <use xlink:href="#DejaVuSans-20" transform="translate(757.128906 0.015625)"/>
      <use xlink:href="#DejaVuSans-52" transform="translate(788.916016 0.015625)"/>
      <use xlink:href="#DejaVuSans-65" transform="translate(858.398438 0.015625)"/>
      <use xlink:href="#DejaVuSans-67" transform="translate(919.921875 0.015625)"/>
      <use xlink:href="#DejaVuSans-69" transform="translate(983.398438 0.015625)"/>
      <use xlink:href="#DejaVuSans-6f" transform="translate(1011.181641 0.015625)"/>
      <use xlink:href="#DejaVuSans-6e" transform="translate(1072.363281 0.015625)"/>
     </g>
    </g>
    <g id="patch_29">
     <path d="M 189.527094 377.682706 
L 209.527094 377.682706 
L 209.527094 370.682706 
L 189.527094 370.682706 
L 189.527094 377.682706 
z
" style="fill: none"/>
    </g>
   </g>
  </g>
 </g>
 <defs>
  <clipPath id="pfcbcc2bb54">
   <rect x="58.945312" y="10.999219" width="266.112" height="266.112"/>
  </clipPath>
 </defs>
</svg>
