<?xml version="1.0" encoding="utf-8" standalone="no"?>
<!DOCTYPE svg PUBLIC "-//W3C//DTD SVG 1.1//EN"
  "http://www.w3.org/Graphics/SVG/1.1/DTD/svg11.dtd">
<svg xmlns:xlink="http://www.w3.org/1999/xlink" width="455.038125pt" height="372.39625pt" viewBox="0 0 455.038125 372.39625" xmlns="http://www.w3.org/2000/svg" version="1.1">
 <metadata>
  <rdf:RDF xmlns:dc="http://purl.org/dc/elements/1.1/" xmlns:cc="http://creativecommons.org/ns#" xmlns:rdf="http://www.w3.org/1999/02/22-rdf-syntax-ns#">
   <cc:Work>
    <dc:type rdf:resource="http://purl.org/dc/dcmitype/StillImage"/>
    <dc:date>2025-03-10T05:55:08.521187</dc:date>
    <dc:format>image/svg+xml</dc:format>
    <dc:creator>
     <cc:Agent>
      <dc:title>Matplotlib v3.9.2, https://matplotlib.org/</dc:title>
     </cc:Agent>
    </dc:creator>
   </cc:Work>
  </rdf:RDF>
 </metadata>
 <defs>
  <style type="text/css">*{stroke-linejoin: round; stroke-linecap: butt}</style>
 </defs>
 <g id="figure_1">
  <g id="patch_1">
   <path d="M 0 372.39625 
L 455.038125 372.39625 
L 455.038125 0 
L 0 0 
z
" style="fill: #ffffff"/>
  </g>
  <g id="axes_1">
   <g id="patch_2">
    <path d="M 55.778125 334.84 
L 412.898125 334.84 
L 412.898125 68.728 
L 55.778125 68.728 
z
" style="fill: #ffffff"/>
   </g>
   <g id="PolyCollection_1">
    <path d="M 56.407025 346.256263 
L 56.407025 311.966448 
L 57.669764 311.231759 
L 58.932504 310.466865 
L 60.195243 309.697203 
L 61.457983 308.926635 
L 62.720722 308.160129 
L 63.983462 307.394343 
L 65.246201 306.636246 
L 66.508941 305.876548 
L 67.77168 305.111037 
L 69.03442 304.343627 
L 70.297159 303.575587 
L 71.559899 302.787909 
L 72.822638 301.999105 
L 74.085378 301.20993 
L 75.348117 300.407287 
L 76.610856 299.597702 
L 77.873596 298.787816 
L 79.136335 297.977682 
L 80.399075 297.154169 
L 81.661814 296.328302 
L 82.924554 295.502208 
L 84.187293 294.675915 
L 85.450033 293.847839 
L 86.712772 293.017729 
L 87.975512 292.187465 
L 89.238251 291.357064 
L 90.500991 290.526542 
L 91.76373 289.694087 
L 93.02647 288.8583 
L 94.289209 288.022404 
L 95.551949 287.186409 
L 96.814688 286.350325 
L 98.077428 285.51416 
L 99.340167 284.677116 
L 100.602907 283.838898 
L 101.865646 283.000612 
L 103.128386 282.162265 
L 104.391125 281.323865 
L 105.653864 280.485416 
L 106.916604 279.646925 
L 108.179343 278.809995 
L 109.442083 277.974894 
L 110.704822 277.13979 
L 111.967562 276.304691 
L 113.230301 275.4696 
L 114.493041 274.634523 
L 115.75578 273.799466 
L 117.01852 272.964432 
L 118.281259 272.129003 
L 119.543999 271.292362 
L 120.806738 270.455745 
L 122.069478 269.619156 
L 123.332217 268.7826 
L 124.594957 267.94608 
L 125.857696 267.109599 
L 127.120436 266.273163 
L 128.383175 265.436775 
L 129.645915 264.600438 
L 130.908654 263.761255 
L 132.171393 262.918323 
L 133.434133 262.075399 
L 134.696872 261.232485 
L 135.959612 260.389585 
L 137.222351 259.546699 
L 138.485091 258.703831 
L 139.74783 257.860984 
L 141.01057 257.018158 
L 142.273309 256.175357 
L 143.536049 255.332582 
L 144.798788 254.489836 
L 146.061528 253.641361 
L 147.324267 252.789684 
L 148.587007 251.937985 
L 149.849746 251.086267 
L 151.112486 250.23453 
L 152.375225 249.382775 
L 153.637965 248.531004 
L 154.900704 247.679217 
L 156.163444 246.827416 
L 157.426183 245.975601 
L 158.688923 245.123774 
L 159.951662 244.271936 
L 161.214401 243.420087 
L 162.477141 242.568229 
L 163.73988 241.714253 
L 165.00262 240.855062 
L 166.265359 239.995835 
L 167.528099 239.136572 
L 168.790838 238.277274 
L 170.053578 237.417941 
L 171.316317 236.558574 
L 172.579057 235.699174 
L 173.841796 234.83974 
L 175.104536 233.980274 
L 176.367275 233.120776 
L 177.630015 232.261246 
L 178.892754 231.401685 
L 180.155494 230.542093 
L 181.418233 229.682471 
L 182.680973 228.82282 
L 183.943712 227.963139 
L 185.206452 227.103429 
L 186.469191 226.24251 
L 187.731931 225.38092 
L 188.99467 224.519297 
L 190.257409 223.657641 
L 191.520149 222.795953 
L 192.782888 221.934233 
L 194.045628 221.072481 
L 195.308367 220.210698 
L 196.571107 219.348884 
L 197.833846 218.487039 
L 199.096586 217.625164 
L 200.359325 216.763259 
L 201.622065 215.901324 
L 202.884804 215.039359 
L 204.147544 214.177366 
L 205.410283 213.315344 
L 206.673023 212.453293 
L 207.935762 211.591214 
L 209.198502 210.729107 
L 210.461241 209.866973 
L 211.723981 209.004811 
L 212.98672 208.142622 
L 214.24946 207.279088 
L 215.512199 206.415423 
L 216.774939 205.551728 
L 218.037678 204.688003 
L 219.300417 203.824248 
L 220.563157 202.960464 
L 221.825896 202.09665 
L 223.088636 201.232807 
L 224.351375 200.368935 
L 225.614115 199.505035 
L 226.876854 198.641106 
L 228.139594 197.777149 
L 229.402333 196.913163 
L 230.665073 196.049151 
L 231.927812 195.18511 
L 233.190552 194.321042 
L 234.453291 193.456947 
L 235.716031 192.592825 
L 236.97877 191.728677 
L 238.24151 190.864502 
L 239.504249 190.000301 
L 240.766989 189.136074 
L 242.029728 188.27182 
L 243.292468 187.407542 
L 244.555207 186.543238 
L 245.817947 185.678908 
L 247.080686 184.814253 
L 248.343425 183.948874 
L 249.606165 183.083468 
L 250.868904 182.218034 
L 252.131644 181.352573 
L 253.394383 180.487085 
L 254.657123 179.62157 
L 255.919862 178.756028 
L 257.182602 177.890461 
L 258.445341 177.024866 
L 259.708081 176.159246 
L 260.97082 175.2936 
L 262.23356 174.427928 
L 263.496299 173.56223 
L 264.759039 172.696508 
L 266.021778 171.830759 
L 267.284518 170.964986 
L 268.547257 170.099188 
L 269.809997 169.233365 
L 271.072736 168.367518 
L 272.335476 167.501646 
L 273.598215 166.63575 
L 274.860954 165.76983 
L 276.123694 164.903886 
L 277.386433 164.037918 
L 278.649173 163.171926 
L 279.911912 162.305912 
L 281.174652 161.439874 
L 282.437391 160.573813 
L 283.700131 159.707729 
L 284.96287 158.841622 
L 286.22561 157.975492 
L 287.488349 157.109341 
L 288.751089 156.243167 
L 290.013828 155.376972 
L 291.276568 154.510754 
L 292.539307 153.644515 
L 293.802047 152.778254 
L 295.064786 151.911971 
L 296.327526 151.045667 
L 297.590265 150.179342 
L 298.853005 149.312997 
L 300.115744 148.44663 
L 301.378484 147.580242 
L 302.641223 146.713835 
L 303.903962 145.847406 
L 305.166702 144.980958 
L 306.429441 144.11449 
L 307.692181 143.248002 
L 308.95492 142.381494 
L 310.21766 141.514966 
L 311.480399 140.648419 
L 312.743139 139.781853 
L 314.005878 138.915268 
L 315.268618 138.048664 
L 316.531357 137.182041 
L 317.794097 136.3154 
L 319.056836 135.44874 
L 320.319576 134.582063 
L 321.582315 133.715366 
L 322.845055 132.848652 
L 324.107794 131.981921 
L 325.370534 131.115171 
L 326.633273 130.248404 
L 327.896013 129.38162 
L 329.158752 128.514819 
L 330.421492 127.648001 
L 331.684231 126.781129 
L 332.94697 125.914038 
L 334.20971 125.04693 
L 335.472449 124.179804 
L 336.735189 123.312661 
L 337.997928 122.445502 
L 339.260668 121.578326 
L 340.523407 120.711133 
L 341.786147 119.843924 
L 343.048886 118.976698 
L 344.311626 118.109457 
L 345.574365 117.2422 
L 346.837105 116.374926 
L 348.099844 115.507638 
L 349.362584 114.640334 
L 350.625323 113.773014 
L 351.888063 112.905679 
L 353.150802 112.03833 
L 354.413542 111.170966 
L 355.676281 110.303587 
L 356.939021 109.436193 
L 358.20176 108.568785 
L 359.4645 107.701363 
L 360.727239 106.833927 
L 361.989978 105.966477 
L 363.252718 105.099014 
L 364.515457 104.231537 
L 365.778197 103.364047 
L 367.040936 102.496543 
L 368.303676 101.629026 
L 369.566415 100.761497 
L 370.829155 99.893955 
L 372.091894 99.0264 
L 373.354634 98.158833 
L 374.617373 97.291253 
L 375.880113 96.423662 
L 377.142852 95.556059 
L 378.405592 94.688444 
L 379.668331 93.819181 
L 380.931071 92.949789 
L 382.19381 92.080379 
L 383.45655 91.210953 
L 384.719289 90.341509 
L 385.982029 89.472048 
L 387.244768 88.60257 
L 388.507508 87.733075 
L 389.770247 86.863564 
L 391.032986 85.994037 
L 392.295726 85.124493 
L 393.558465 84.254932 
L 394.821205 83.385356 
L 396.083944 82.515764 
L 397.346684 81.646155 
L 398.609423 80.776532 
L 399.872163 79.906892 
L 401.134902 79.037237 
L 402.397642 78.167567 
L 403.660381 77.297882 
L 404.923121 76.428181 
L 406.18586 75.558466 
L 407.4486 74.688736 
L 408.711339 73.818991 
L 409.974079 72.949232 
L 411.236818 72.079458 
L 412.499558 71.20967 
L 413.762297 70.339868 
L 415.025037 69.470052 
L 416.287776 68.600223 
L 417.550515 67.730379 
L 418.813255 66.860522 
L 420.075994 65.990652 
L 421.338734 65.120768 
L 422.601473 64.250871 
L 423.864213 63.380961 
L 425.126952 62.511038 
L 426.389692 61.640543 
L 427.652431 60.769552 
L 428.915171 59.898545 
L 430.17791 59.027523 
L 431.44065 58.156485 
L 432.703389 57.285431 
L 433.966129 56.414361 
L 435.228868 55.543277 
L 436.491608 54.672177 
L 437.754347 53.801061 
L 439.017087 52.929931 
L 440.279826 52.058786 
L 441.542566 51.187627 
L 442.805305 50.316452 
L 444.068045 49.445263 
L 445.330784 48.57406 
L 446.593523 47.702843 
L 447.856263 46.831611 
L 449.119002 45.960365 
L 450.381742 45.089105 
L 451.644481 44.217832 
L 452.907221 43.346545 
L 454.16996 42.475244 
L 455.4327 41.60393 
L 456.695439 40.732603 
L 457.958179 39.861262 
L 459.220918 38.989909 
L 460.483658 38.118542 
L 461.746397 37.247163 
L 463.009137 36.375771 
L 464.271876 35.504367 
L 465.534616 34.63295 
L 466.797355 33.761521 
L 468.060095 32.890079 
L 469.322834 32.018626 
L 470.585574 31.147161 
L 471.848313 30.275684 
L 473.111053 29.405003 
L 474.373792 28.534994 
L 475.636531 27.66498 
L 476.899271 26.79496 
L 478.16201 25.924934 
L 479.42475 25.054903 
L 480.687489 24.184867 
L 481.950229 23.314825 
L 483.212968 22.444779 
L 484.475708 21.574728 
L 485.738447 20.704673 
L 487.001187 19.834613 
L 488.263926 18.96455 
L 489.526666 18.094482 
L 490.789405 17.22441 
L 492.052145 16.354334 
L 493.314884 15.484256 
L 494.577624 14.614173 
L 495.840363 13.744088 
L 497.103103 12.873999 
L 498.365842 12.003908 
L 499.628582 11.133814 
L 500.891321 10.263718 
L 502.154061 9.393619 
L 503.4168 8.523518 
L 504.679539 7.653415 
L 505.942279 6.783311 
L 507.205018 5.913205 
L 508.467758 5.043097 
L 509.730497 4.172988 
L 510.993237 3.302879 
L 512.255976 2.432768 
L 513.518716 1.562656 
L 514.781455 0.692545 
L 516.044195 -0.177568 
L 517.306934 -1.04768 
L 518.569674 -1.917792 
L 519.832413 -2.788315 
L 521.095153 -3.658884 
L 522.357892 -4.529455 
L 523.620632 -5.400026 
L 524.883371 -6.270599 
L 526.146111 -7.141173 
L 527.40885 -8.011747 
L 528.67159 -8.882322 
L 529.934329 -9.752897 
L 531.197068 -10.623472 
L 532.459808 -11.494047 
L 533.722547 -12.364622 
L 534.985287 -13.235196 
L 536.248026 -14.10577 
L 537.510766 -14.976342 
L 538.773505 -15.846914 
L 540.036245 -16.717485 
L 541.298984 -17.588054 
L 542.561724 -18.458622 
L 543.824463 -19.329188 
L 545.087203 -20.199752 
L 546.349942 -21.070315 
L 547.612682 -21.940874 
L 548.875421 -22.811431 
L 550.138161 -23.681986 
L 551.4009 -24.552538 
L 552.66364 -25.423086 
L 553.926379 -26.293632 
L 555.189119 -27.164173 
L 556.451858 -28.034712 
L 557.714598 -28.905246 
L 558.977337 -29.775776 
L 560.240076 -30.646302 
L 561.502816 -31.516824 
L 562.765555 -32.387341 
L 564.028295 -33.257853 
L 565.291034 -34.125474 
L 566.553774 -34.991293 
L 567.816513 -35.857081 
L 569.079253 -36.722837 
L 570.341992 -37.588562 
L 571.604732 -38.454255 
L 572.867471 -39.319915 
L 574.130211 -40.185542 
L 575.39295 -41.051136 
L 576.65569 -41.916695 
L 577.918429 -42.782221 
L 579.181169 -43.647711 
L 580.443908 -44.513166 
L 581.706648 -45.378586 
L 582.969387 -46.243969 
L 584.232127 -47.109316 
L 585.494866 -47.974626 
L 586.757606 -48.839897 
L 588.020345 -49.705131 
L 589.283084 -50.570327 
L 590.545824 -51.435483 
L 591.808563 -52.3006 
L 593.071303 -53.165677 
L 594.334042 -54.030713 
L 595.596782 -54.895708 
L 596.859521 -55.760662 
L 598.122261 -56.625573 
L 599.385 -57.490442 
L 600.64774 -58.355268 
L 601.910479 -59.22005 
L 603.173219 -60.084789 
L 604.435958 -60.949482 
L 605.698698 -61.81413 
L 606.961437 -62.678733 
L 608.224177 -63.543289 
L 609.486916 -64.407798 
L 610.749656 -65.271761 
L 612.012395 -66.135319 
L 613.275135 -66.998823 
L 614.537874 -67.86227 
L 615.800614 -68.725662 
L 617.063353 -69.588997 
L 618.326092 -70.452275 
L 619.588832 -71.315494 
L 620.851571 -72.178655 
L 622.114311 -73.041756 
L 623.37705 -73.904797 
L 624.63979 -74.767777 
L 625.902529 -75.630695 
L 627.165269 -76.493552 
L 628.428008 -77.356345 
L 629.690748 -78.219074 
L 630.953487 -79.081739 
L 632.216227 -79.944339 
L 633.478966 -80.806872 
L 634.741706 -81.669339 
L 636.004445 -82.531738 
L 637.267185 -83.394069 
L 638.529924 -84.256331 
L 639.792664 -85.118522 
L 639.792664 -44.720444 
L 639.792664 -44.720444 
L 638.529924 -43.884579 
L 637.267185 -43.0486 
L 636.004445 -42.212507 
L 634.741706 -41.376301 
L 633.478966 -40.539984 
L 632.216227 -39.703556 
L 630.953487 -38.867017 
L 629.690748 -38.030368 
L 628.428008 -37.19361 
L 627.165269 -36.356744 
L 625.902529 -35.519769 
L 624.63979 -34.682688 
L 623.37705 -33.845499 
L 622.114311 -33.008205 
L 620.851571 -32.170806 
L 619.588832 -31.333301 
L 618.326092 -30.495693 
L 617.063353 -29.657981 
L 615.800614 -28.820166 
L 614.537874 -27.982249 
L 613.275135 -27.14423 
L 612.012395 -26.306109 
L 610.749656 -25.467888 
L 609.486916 -24.629216 
L 608.224177 -23.789952 
L 606.961437 -22.950595 
L 605.698698 -22.111145 
L 604.435958 -21.271603 
L 603.173219 -20.431969 
L 601.910479 -19.592245 
L 600.64774 -18.752429 
L 599.385 -17.912524 
L 598.122261 -17.072528 
L 596.859521 -16.232443 
L 595.596782 -15.392269 
L 594.334042 -14.552006 
L 593.071303 -13.711656 
L 591.808563 -12.871217 
L 590.545824 -12.030691 
L 589.283084 -11.190079 
L 588.020345 -10.349379 
L 586.757606 -9.508594 
L 585.494866 -8.667723 
L 584.232127 -7.826767 
L 582.969387 -6.985725 
L 581.706648 -6.1446 
L 580.443908 -5.30339 
L 579.181169 -4.462096 
L 577.918429 -3.620718 
L 576.65569 -2.779258 
L 575.39295 -1.937715 
L 574.130211 -1.09609 
L 572.867471 -0.254382 
L 571.604732 0.587407 
L 570.341992 1.429277 
L 569.079253 2.271229 
L 567.816513 3.113261 
L 566.553774 3.955373 
L 565.291034 4.797565 
L 564.028295 5.641609 
L 562.765555 6.488593 
L 561.502816 7.335631 
L 560.240076 8.182723 
L 558.977337 9.029869 
L 557.714598 9.877069 
L 556.451858 10.724323 
L 555.189119 11.571631 
L 553.926379 12.418992 
L 552.66364 13.266406 
L 551.4009 14.113874 
L 550.138161 14.961395 
L 548.875421 15.808969 
L 547.612682 16.656596 
L 546.349942 17.504276 
L 545.087203 18.352009 
L 543.824463 19.199794 
L 542.561724 20.047632 
L 541.298984 20.895523 
L 540.036245 21.743466 
L 538.773505 22.591461 
L 537.510766 23.439509 
L 536.248026 24.287609 
L 534.985287 25.13576 
L 533.722547 25.983964 
L 532.459808 26.832219 
L 531.197068 27.680527 
L 529.934329 28.528886 
L 528.67159 29.377296 
L 527.40885 30.225758 
L 526.146111 31.074271 
L 524.883371 31.922836 
L 523.620632 32.771452 
L 522.357892 33.620119 
L 521.095153 34.468837 
L 519.832413 35.317606 
L 518.569674 36.16638 
L 517.306934 37.014797 
L 516.044195 37.863267 
L 514.781455 38.711789 
L 513.518716 39.560363 
L 512.255976 40.40899 
L 510.993237 41.257669 
L 509.730497 42.1064 
L 508.467758 42.955183 
L 507.205018 43.804018 
L 505.942279 44.652905 
L 504.679539 45.501844 
L 503.4168 46.350835 
L 502.154061 47.199877 
L 500.891321 48.04897 
L 499.628582 48.898116 
L 498.365842 49.747312 
L 497.103103 50.59656 
L 495.840363 51.445859 
L 494.577624 52.295209 
L 493.314884 53.14461 
L 492.052145 53.994062 
L 490.789405 54.843564 
L 489.526666 55.693118 
L 488.263926 56.542722 
L 487.001187 57.392377 
L 485.738447 58.242082 
L 484.475708 59.091838 
L 483.212968 59.941644 
L 481.950229 60.791501 
L 480.687489 61.641408 
L 479.42475 62.491364 
L 478.16201 63.341371 
L 476.899271 64.191428 
L 475.636531 65.041535 
L 474.373792 65.891692 
L 473.111053 66.741898 
L 471.848313 67.592832 
L 470.585574 68.444619 
L 469.322834 69.296449 
L 468.060095 70.148323 
L 466.797355 71.000242 
L 465.534616 71.852204 
L 464.271876 72.704211 
L 463.009137 73.556261 
L 461.746397 74.408355 
L 460.483658 75.260493 
L 459.220918 76.112675 
L 457.958179 76.9649 
L 456.695439 77.817169 
L 455.4327 78.669482 
L 454.16996 79.521838 
L 452.907221 80.374239 
L 451.644481 81.226682 
L 450.381742 82.079169 
L 449.119002 82.9317 
L 447.856263 83.784274 
L 446.593523 84.636892 
L 445.330784 85.489553 
L 444.068045 86.342257 
L 442.805305 87.195004 
L 441.542566 88.047795 
L 440.279826 88.900629 
L 439.017087 89.753507 
L 437.754347 90.606427 
L 436.491608 91.459391 
L 435.228868 92.312398 
L 433.966129 93.165447 
L 432.703389 94.01854 
L 431.44065 94.871676 
L 430.17791 95.724855 
L 428.915171 96.578077 
L 427.652431 97.431341 
L 426.389692 98.284649 
L 425.126952 99.13752 
L 423.864213 99.989877 
L 422.601473 100.842281 
L 421.338734 101.694731 
L 420.075994 102.547227 
L 418.813255 103.399769 
L 417.550515 104.252357 
L 416.287776 105.104991 
L 415.025037 105.957671 
L 413.762297 106.810396 
L 412.499558 107.663168 
L 411.236818 108.515985 
L 409.974079 109.368848 
L 408.711339 110.221756 
L 407.4486 111.07471 
L 406.18586 111.92771 
L 404.923121 112.780755 
L 403.660381 113.633846 
L 402.397642 114.486981 
L 401.134902 115.340163 
L 399.872163 116.193389 
L 398.609423 117.046661 
L 397.346684 117.899978 
L 396.083944 118.75334 
L 394.821205 119.606747 
L 393.558465 120.460199 
L 392.295726 121.313697 
L 391.032986 122.167239 
L 389.770247 123.020826 
L 388.507508 123.874457 
L 387.244768 124.728134 
L 385.982029 125.581855 
L 384.719289 126.435621 
L 383.45655 127.289432 
L 382.19381 128.143287 
L 380.931071 128.997187 
L 379.668331 129.851131 
L 378.405592 130.705008 
L 377.142852 131.557299 
L 375.880113 132.409641 
L 374.617373 133.262033 
L 373.354634 134.114475 
L 372.091894 134.966967 
L 370.829155 135.81951 
L 369.566415 136.672102 
L 368.303676 137.524744 
L 367.040936 138.377436 
L 365.778197 139.230178 
L 364.515457 140.082969 
L 363.252718 140.93581 
L 361.989978 141.788701 
L 360.727239 142.641641 
L 359.4645 143.49463 
L 358.20176 144.347668 
L 356.939021 145.200755 
L 355.676281 146.053892 
L 354.413542 146.907077 
L 353.150802 147.760311 
L 351.888063 148.613594 
L 350.625323 149.466926 
L 349.362584 150.320307 
L 348.099844 151.173735 
L 346.837105 152.027213 
L 345.574365 152.880739 
L 344.311626 153.734313 
L 343.048886 154.587935 
L 341.786147 155.441605 
L 340.523407 156.295324 
L 339.260668 157.14909 
L 337.997928 158.002904 
L 336.735189 158.856766 
L 335.472449 159.710676 
L 334.20971 160.564633 
L 332.94697 161.418638 
L 331.684231 162.27269 
L 330.421492 163.126587 
L 329.158752 163.980496 
L 327.896013 164.834453 
L 326.633273 165.688459 
L 325.370534 166.542511 
L 324.107794 167.396612 
L 322.845055 168.25076 
L 321.582315 169.104956 
L 320.319576 169.959199 
L 319.056836 170.81349 
L 317.794097 171.667828 
L 316.531357 172.522213 
L 315.268618 173.376645 
L 314.005878 174.231124 
L 312.743139 175.085651 
L 311.480399 175.940224 
L 310.21766 176.794843 
L 308.95492 177.64951 
L 307.692181 178.504223 
L 306.429441 179.358982 
L 305.166702 180.213788 
L 303.903962 181.06864 
L 302.641223 181.923538 
L 301.378484 182.778482 
L 300.115744 183.633472 
L 298.853005 184.488508 
L 297.590265 185.34359 
L 296.327526 186.198718 
L 295.064786 187.053891 
L 293.802047 187.90911 
L 292.539307 188.764374 
L 291.276568 189.619683 
L 290.013828 190.475038 
L 288.751089 191.330438 
L 287.488349 192.185882 
L 286.22561 193.041372 
L 284.96287 193.896907 
L 283.700131 194.752487 
L 282.437391 195.608111 
L 281.174652 196.463779 
L 279.911912 197.319492 
L 278.649173 198.17525 
L 277.386433 199.031051 
L 276.123694 199.886897 
L 274.860954 200.742787 
L 273.598215 201.59872 
L 272.335476 202.454697 
L 271.072736 203.310718 
L 269.809997 204.166783 
L 268.547257 205.02289 
L 267.284518 205.879042 
L 266.021778 206.735236 
L 264.759039 207.591473 
L 263.496299 208.447754 
L 262.23356 209.304077 
L 260.97082 210.160443 
L 259.708081 211.016852 
L 258.445341 211.873303 
L 257.182602 212.729797 
L 255.919862 213.586333 
L 254.657123 214.442911 
L 253.394383 215.299531 
L 252.131644 216.156193 
L 250.868904 217.012897 
L 249.606165 217.869642 
L 248.343425 218.726429 
L 247.080686 219.583258 
L 245.817947 220.439431 
L 244.555207 221.295348 
L 243.292468 222.151308 
L 242.029728 223.007312 
L 240.766989 223.86336 
L 239.504249 224.719451 
L 238.24151 225.575586 
L 236.97877 226.431763 
L 235.716031 227.287984 
L 234.453291 228.144247 
L 233.190552 229.000552 
L 231.927812 229.856901 
L 230.665073 230.713291 
L 229.402333 231.569723 
L 228.139594 232.426197 
L 226.876854 233.282713 
L 225.614115 234.139271 
L 224.351375 234.995869 
L 223.088636 235.852509 
L 221.825896 236.70919 
L 220.563157 237.565912 
L 219.300417 238.422674 
L 218.037678 239.279476 
L 216.774939 240.136319 
L 215.512199 240.993202 
L 214.24946 241.850125 
L 212.98672 242.706987 
L 211.723981 243.562574 
L 210.461241 244.418205 
L 209.198502 245.273878 
L 207.935762 246.129594 
L 206.673023 246.985352 
L 205.410283 247.841153 
L 204.147544 248.696996 
L 202.884804 249.55288 
L 201.622065 250.408806 
L 200.359325 251.264773 
L 199.096586 252.120781 
L 197.833846 252.976829 
L 196.571107 253.832918 
L 195.308367 254.689046 
L 194.045628 255.545215 
L 192.782888 256.401422 
L 191.520149 257.257669 
L 190.257409 258.113955 
L 188.99467 258.970279 
L 187.731931 259.826641 
L 186.469191 260.683041 
L 185.206452 261.538842 
L 183.943712 262.393504 
L 182.680973 263.248208 
L 181.418233 264.102954 
L 180.155494 264.957741 
L 178.892754 265.812569 
L 177.630015 266.667438 
L 176.367275 267.522347 
L 175.104536 268.377295 
L 173.841796 269.232282 
L 172.579057 270.087308 
L 171.316317 270.942373 
L 170.053578 271.797475 
L 168.790838 272.652614 
L 167.528099 273.50779 
L 166.265359 274.363002 
L 165.00262 275.21825 
L 163.73988 276.073533 
L 162.477141 276.923673 
L 161.214401 277.771765 
L 159.951662 278.61992 
L 158.688923 279.468137 
L 157.426183 280.316413 
L 156.163444 281.164749 
L 154.900704 282.013143 
L 153.637965 282.861595 
L 152.375225 283.710102 
L 151.112486 284.558665 
L 149.849746 285.407281 
L 148.587007 286.255951 
L 147.324267 287.104672 
L 146.061528 287.953443 
L 144.798788 288.799085 
L 143.536049 289.639069 
L 142.273309 290.479154 
L 141.01057 291.319337 
L 139.74783 292.159616 
L 138.485091 292.999989 
L 137.222351 293.840454 
L 135.959612 294.681009 
L 134.696872 295.52165 
L 133.434133 296.362377 
L 132.171393 297.203186 
L 130.908654 298.044075 
L 129.645915 298.881286 
L 128.383175 299.715724 
L 127.120436 300.550285 
L 125.857696 301.384966 
L 124.594957 302.219763 
L 123.332217 303.054671 
L 122.069478 303.889689 
L 120.806738 304.72481 
L 119.543999 305.560032 
L 118.281259 306.395349 
L 117.01852 307.229528 
L 115.75578 308.063382 
L 114.493041 308.897332 
L 113.230301 309.731374 
L 111.967562 310.565502 
L 110.704822 311.39971 
L 109.442083 312.233995 
L 108.179343 313.068349 
L 106.916604 313.904605 
L 105.653864 314.742493 
L 104.391125 315.580412 
L 103.128386 316.418354 
L 101.865646 317.256315 
L 100.602907 318.094286 
L 99.340167 318.932263 
L 98.077428 319.769137 
L 96.814688 320.605204 
L 95.551949 321.441263 
L 94.289209 322.277304 
L 93.02647 323.113319 
L 91.76373 323.949296 
L 90.500991 324.782015 
L 89.238251 325.612872 
L 87.975512 326.44368 
L 86.712772 327.274423 
L 85.450033 328.105085 
L 84.187293 328.933784 
L 82.924554 329.760773 
L 81.661814 330.587634 
L 80.399075 331.414341 
L 79.136335 332.238765 
L 77.873596 333.049884 
L 76.610856 333.860826 
L 75.348117 334.671539 
L 74.085378 335.475382 
L 72.822638 336.26583 
L 71.559899 337.055978 
L 70.297159 337.845072 
L 69.03442 338.6146 
L 67.77168 339.383571 
L 66.508941 340.150714 
L 65.246201 340.912116 
L 63.983462 341.671989 
L 62.720722 342.439623 
L 61.457983 343.20805 
L 60.195243 343.98061 
L 58.932504 344.752336 
L 57.669764 345.519366 
L 56.407025 346.256263 
z
" clip-path="url(#p43a474b7b5)" style="fill-opacity: 0.2"/>
   </g>
   <g id="matplotlib.axis_1">
    <g id="xtick_1">
     <g id="line2d_1">
      <defs>
       <path id="mc46de5e12a" d="M 0 0 
L 0 3.5 
" style="stroke: #000000; stroke-width: 0.8"/>
      </defs>
      <g>
       <use xlink:href="#mc46de5e12a" x="55.778125" y="334.84" style="stroke: #000000; stroke-width: 0.8"/>
      </g>
     </g>
     <g id="text_1">
      <!-- 0 -->
      <g transform="translate(52.596875 349.438437) scale(0.1 -0.1)">
       <defs>
        <path id="DejaVuSans-30" d="M 2034 4250 
Q 1547 4250 1301 3770 
Q 1056 3291 1056 2328 
Q 1056 1369 1301 889 
Q 1547 409 2034 409 
Q 2525 409 2770 889 
Q 3016 1369 3016 2328 
Q 3016 3291 2770 3770 
Q 2525 4250 2034 4250 
z
M 2034 4750 
Q 2819 4750 3233 4129 
Q 3647 3509 3647 2328 
Q 3647 1150 3233 529 
Q 2819 -91 2034 -91 
Q 1250 -91 836 529 
Q 422 1150 422 2328 
Q 422 3509 836 4129 
Q 1250 4750 2034 4750 
z
" transform="scale(0.015625)"/>
       </defs>
       <use xlink:href="#DejaVuSans-30"/>
      </g>
     </g>
    </g>
    <g id="xtick_2">
     <g id="line2d_2">
      <g>
       <use xlink:href="#mc46de5e12a" x="115.298125" y="334.84" style="stroke: #000000; stroke-width: 0.8"/>
      </g>
     </g>
     <g id="text_2">
      <!-- 500 -->
      <g transform="translate(105.754375 349.438437) scale(0.1 -0.1)">
       <defs>
        <path id="DejaVuSans-35" d="M 691 4666 
L 3169 4666 
L 3169 4134 
L 1269 4134 
L 1269 2991 
Q 1406 3038 1543 3061 
Q 1681 3084 1819 3084 
Q 2600 3084 3056 2656 
Q 3513 2228 3513 1497 
Q 3513 744 3044 326 
Q 2575 -91 1722 -91 
Q 1428 -91 1123 -41 
Q 819 9 494 109 
L 494 744 
Q 775 591 1075 516 
Q 1375 441 1709 441 
Q 2250 441 2565 725 
Q 2881 1009 2881 1497 
Q 2881 1984 2565 2268 
Q 2250 2553 1709 2553 
Q 1456 2553 1204 2497 
Q 953 2441 691 2322 
L 691 4666 
z
" transform="scale(0.015625)"/>
       </defs>
       <use xlink:href="#DejaVuSans-35"/>
       <use xlink:href="#DejaVuSans-30" x="63.623047"/>
       <use xlink:href="#DejaVuSans-30" x="127.246094"/>
      </g>
     </g>
    </g>
    <g id="xtick_3">
     <g id="line2d_3">
      <g>
       <use xlink:href="#mc46de5e12a" x="174.818125" y="334.84" style="stroke: #000000; stroke-width: 0.8"/>
      </g>
     </g>
     <g id="text_3">
      <!-- 1000 -->
      <g transform="translate(162.093125 349.438437) scale(0.1 -0.1)">
       <defs>
        <path id="DejaVuSans-31" d="M 794 531 
L 1825 531 
L 1825 4091 
L 703 3866 
L 703 4441 
L 1819 4666 
L 2450 4666 
L 2450 531 
L 3481 531 
L 3481 0 
L 794 0 
L 794 531 
z
" transform="scale(0.015625)"/>
       </defs>
       <use xlink:href="#DejaVuSans-31"/>
       <use xlink:href="#DejaVuSans-30" x="63.623047"/>
       <use xlink:href="#DejaVuSans-30" x="127.246094"/>
       <use xlink:href="#DejaVuSans-30" x="190.869141"/>
      </g>
     </g>
    </g>
    <g id="xtick_4">
     <g id="line2d_4">
      <g>
       <use xlink:href="#mc46de5e12a" x="234.338125" y="334.84" style="stroke: #000000; stroke-width: 0.8"/>
      </g>
     </g>
     <g id="text_4">
      <!-- 1500 -->
      <g transform="translate(221.613125 349.438437) scale(0.1 -0.1)">
       <use xlink:href="#DejaVuSans-31"/>
       <use xlink:href="#DejaVuSans-35" x="63.623047"/>
       <use xlink:href="#DejaVuSans-30" x="127.246094"/>
       <use xlink:href="#DejaVuSans-30" x="190.869141"/>
      </g>
     </g>
    </g>
    <g id="xtick_5">
     <g id="line2d_5">
      <g>
       <use xlink:href="#mc46de5e12a" x="293.858125" y="334.84" style="stroke: #000000; stroke-width: 0.8"/>
      </g>
     </g>
     <g id="text_5">
      <!-- 2000 -->
      <g transform="translate(281.133125 349.438437) scale(0.1 -0.1)">
       <defs>
        <path id="DejaVuSans-32" d="M 1228 531 
L 3431 531 
L 3431 0 
L 469 0 
L 469 531 
Q 828 903 1448 1529 
Q 2069 2156 2228 2338 
Q 2531 2678 2651 2914 
Q 2772 3150 2772 3378 
Q 2772 3750 2511 3984 
Q 2250 4219 1831 4219 
Q 1534 4219 1204 4116 
Q 875 4013 500 3803 
L 500 4441 
Q 881 4594 1212 4672 
Q 1544 4750 1819 4750 
Q 2544 4750 2975 4387 
Q 3406 4025 3406 3419 
Q 3406 3131 3298 2873 
Q 3191 2616 2906 2266 
Q 2828 2175 2409 1742 
Q 1991 1309 1228 531 
z
" transform="scale(0.015625)"/>
       </defs>
       <use xlink:href="#DejaVuSans-32"/>
       <use xlink:href="#DejaVuSans-30" x="63.623047"/>
       <use xlink:href="#DejaVuSans-30" x="127.246094"/>
       <use xlink:href="#DejaVuSans-30" x="190.869141"/>
      </g>
     </g>
    </g>
    <g id="xtick_6">
     <g id="line2d_6">
      <g>
       <use xlink:href="#mc46de5e12a" x="353.378125" y="334.84" style="stroke: #000000; stroke-width: 0.8"/>
      </g>
     </g>
     <g id="text_6">
      <!-- 2500 -->
      <g transform="translate(340.653125 349.438437) scale(0.1 -0.1)">
       <use xlink:href="#DejaVuSans-32"/>
       <use xlink:href="#DejaVuSans-35" x="63.623047"/>
       <use xlink:href="#DejaVuSans-30" x="127.246094"/>
       <use xlink:href="#DejaVuSans-30" x="190.869141"/>
      </g>
     </g>
    </g>
    <g id="xtick_7">
     <g id="line2d_7">
      <g>
       <use xlink:href="#mc46de5e12a" x="412.898125" y="334.84" style="stroke: #000000; stroke-width: 0.8"/>
      </g>
     </g>
     <g id="text_7">
      <!-- 3000 -->
      <g transform="translate(400.173125 349.438437) scale(0.1 -0.1)">
       <defs>
        <path id="DejaVuSans-33" d="M 2597 2516 
Q 3050 2419 3304 2112 
Q 3559 1806 3559 1356 
Q 3559 666 3084 287 
Q 2609 -91 1734 -91 
Q 1441 -91 1130 -33 
Q 819 25 488 141 
L 488 750 
Q 750 597 1062 519 
Q 1375 441 1716 441 
Q 2309 441 2620 675 
Q 2931 909 2931 1356 
Q 2931 1769 2642 2001 
Q 2353 2234 1838 2234 
L 1294 2234 
L 1294 2753 
L 1863 2753 
Q 2328 2753 2575 2939 
Q 2822 3125 2822 3475 
Q 2822 3834 2567 4026 
Q 2313 4219 1838 4219 
Q 1578 4219 1281 4162 
Q 984 4106 628 3988 
L 628 4550 
Q 988 4650 1302 4700 
Q 1616 4750 1894 4750 
Q 2613 4750 3031 4423 
Q 3450 4097 3450 3541 
Q 3450 3153 3228 2886 
Q 3006 2619 2597 2516 
z
" transform="scale(0.015625)"/>
       </defs>
       <use xlink:href="#DejaVuSans-33"/>
       <use xlink:href="#DejaVuSans-30" x="63.623047"/>
       <use xlink:href="#DejaVuSans-30" x="127.246094"/>
       <use xlink:href="#DejaVuSans-30" x="190.869141"/>
      </g>
     </g>
    </g>
    <g id="text_8">
     <!-- Crossings -->
     <g transform="translate(210.298281 363.116562) scale(0.1 -0.1)">
      <defs>
       <path id="DejaVuSans-43" d="M 4122 4306 
L 4122 3641 
Q 3803 3938 3442 4084 
Q 3081 4231 2675 4231 
Q 1875 4231 1450 3742 
Q 1025 3253 1025 2328 
Q 1025 1406 1450 917 
Q 1875 428 2675 428 
Q 3081 428 3442 575 
Q 3803 722 4122 1019 
L 4122 359 
Q 3791 134 3420 21 
Q 3050 -91 2638 -91 
Q 1578 -91 968 557 
Q 359 1206 359 2328 
Q 359 3453 968 4101 
Q 1578 4750 2638 4750 
Q 3056 4750 3426 4639 
Q 3797 4528 4122 4306 
z
" transform="scale(0.015625)"/>
       <path id="DejaVuSans-72" d="M 2631 2963 
Q 2534 3019 2420 3045 
Q 2306 3072 2169 3072 
Q 1681 3072 1420 2755 
Q 1159 2438 1159 1844 
L 1159 0 
L 581 0 
L 581 3500 
L 1159 3500 
L 1159 2956 
Q 1341 3275 1631 3429 
Q 1922 3584 2338 3584 
Q 2397 3584 2469 3576 
Q 2541 3569 2628 3553 
L 2631 2963 
z
" transform="scale(0.015625)"/>
       <path id="DejaVuSans-6f" d="M 1959 3097 
Q 1497 3097 1228 2736 
Q 959 2375 959 1747 
Q 959 1119 1226 758 
Q 1494 397 1959 397 
Q 2419 397 2687 759 
Q 2956 1122 2956 1747 
Q 2956 2369 2687 2733 
Q 2419 3097 1959 3097 
z
M 1959 3584 
Q 2709 3584 3137 3096 
Q 3566 2609 3566 1747 
Q 3566 888 3137 398 
Q 2709 -91 1959 -91 
Q 1206 -91 779 398 
Q 353 888 353 1747 
Q 353 2609 779 3096 
Q 1206 3584 1959 3584 
z
" transform="scale(0.015625)"/>
       <path id="DejaVuSans-73" d="M 2834 3397 
L 2834 2853 
Q 2591 2978 2328 3040 
Q 2066 3103 1784 3103 
Q 1356 3103 1142 2972 
Q 928 2841 928 2578 
Q 928 2378 1081 2264 
Q 1234 2150 1697 2047 
L 1894 2003 
Q 2506 1872 2764 1633 
Q 3022 1394 3022 966 
Q 3022 478 2636 193 
Q 2250 -91 1575 -91 
Q 1294 -91 989 -36 
Q 684 19 347 128 
L 347 722 
Q 666 556 975 473 
Q 1284 391 1588 391 
Q 1994 391 2212 530 
Q 2431 669 2431 922 
Q 2431 1156 2273 1281 
Q 2116 1406 1581 1522 
L 1381 1569 
Q 847 1681 609 1914 
Q 372 2147 372 2553 
Q 372 3047 722 3315 
Q 1072 3584 1716 3584 
Q 2034 3584 2315 3537 
Q 2597 3491 2834 3397 
z
" transform="scale(0.015625)"/>
       <path id="DejaVuSans-69" d="M 603 3500 
L 1178 3500 
L 1178 0 
L 603 0 
L 603 3500 
z
M 603 4863 
L 1178 4863 
L 1178 4134 
L 603 4134 
L 603 4863 
z
" transform="scale(0.015625)"/>
       <path id="DejaVuSans-6e" d="M 3513 2113 
L 3513 0 
L 2938 0 
L 2938 2094 
Q 2938 2591 2744 2837 
Q 2550 3084 2163 3084 
Q 1697 3084 1428 2787 
Q 1159 2491 1159 1978 
L 1159 0 
L 581 0 
L 581 3500 
L 1159 3500 
L 1159 2956 
Q 1366 3272 1645 3428 
Q 1925 3584 2291 3584 
Q 2894 3584 3203 3211 
Q 3513 2838 3513 2113 
z
" transform="scale(0.015625)"/>
       <path id="DejaVuSans-67" d="M 2906 1791 
Q 2906 2416 2648 2759 
Q 2391 3103 1925 3103 
Q 1463 3103 1205 2759 
Q 947 2416 947 1791 
Q 947 1169 1205 825 
Q 1463 481 1925 481 
Q 2391 481 2648 825 
Q 2906 1169 2906 1791 
z
M 3481 434 
Q 3481 -459 3084 -895 
Q 2688 -1331 1869 -1331 
Q 1566 -1331 1297 -1286 
Q 1028 -1241 775 -1147 
L 775 -588 
Q 1028 -725 1275 -790 
Q 1522 -856 1778 -856 
Q 2344 -856 2625 -561 
Q 2906 -266 2906 331 
L 2906 616 
Q 2728 306 2450 153 
Q 2172 0 1784 0 
Q 1141 0 747 490 
Q 353 981 353 1791 
Q 353 2603 747 3093 
Q 1141 3584 1784 3584 
Q 2172 3584 2450 3431 
Q 2728 3278 2906 2969 
L 2906 3500 
L 3481 3500 
L 3481 434 
z
" transform="scale(0.015625)"/>
      </defs>
      <use xlink:href="#DejaVuSans-43"/>
      <use xlink:href="#DejaVuSans-72" x="69.824219"/>
      <use xlink:href="#DejaVuSans-6f" x="108.6875"/>
      <use xlink:href="#DejaVuSans-73" x="169.869141"/>
      <use xlink:href="#DejaVuSans-73" x="221.96875"/>
      <use xlink:href="#DejaVuSans-69" x="274.068359"/>
      <use xlink:href="#DejaVuSans-6e" x="301.851562"/>
      <use xlink:href="#DejaVuSans-67" x="365.230469"/>
      <use xlink:href="#DejaVuSans-73" x="428.707031"/>
     </g>
    </g>
   </g>
   <g id="matplotlib.axis_2">
    <g id="ytick_1">
     <g id="line2d_8">
      <defs>
       <path id="mef9db4a074" d="M 0 0 
L -3.5 0 
" style="stroke: #000000; stroke-width: 0.8"/>
      </defs>
      <g>
       <use xlink:href="#mef9db4a074" x="55.778125" y="334.84" style="stroke: #000000; stroke-width: 0.8"/>
      </g>
     </g>
     <g id="text_9">
      <!-- $\mathdefault{10^{-11}}$ -->
      <g transform="translate(20.878125 338.639219) scale(0.1 -0.1)">
       <defs>
        <path id="DejaVuSans-2212" d="M 678 2272 
L 4684 2272 
L 4684 1741 
L 678 1741 
L 678 2272 
z
" transform="scale(0.015625)"/>
       </defs>
       <use xlink:href="#DejaVuSans-31" transform="translate(0 0.684375)"/>
       <use xlink:href="#DejaVuSans-30" transform="translate(63.623047 0.684375)"/>
       <use xlink:href="#DejaVuSans-2212" transform="translate(128.203125 38.965625) scale(0.7)"/>
       <use xlink:href="#DejaVuSans-31" transform="translate(186.855469 38.965625) scale(0.7)"/>
       <use xlink:href="#DejaVuSans-31" transform="translate(231.391602 38.965625) scale(0.7)"/>
      </g>
     </g>
    </g>
    <g id="ytick_2">
     <g id="line2d_9">
      <g>
       <use xlink:href="#mef9db4a074" x="55.778125" y="294.9232" style="stroke: #000000; stroke-width: 0.8"/>
      </g>
     </g>
     <g id="text_10">
      <!-- $\mathdefault{10^{-8}}$ -->
      <g transform="translate(25.278125 298.722419) scale(0.1 -0.1)">
       <defs>
        <path id="DejaVuSans-38" d="M 2034 2216 
Q 1584 2216 1326 1975 
Q 1069 1734 1069 1313 
Q 1069 891 1326 650 
Q 1584 409 2034 409 
Q 2484 409 2743 651 
Q 3003 894 3003 1313 
Q 3003 1734 2745 1975 
Q 2488 2216 2034 2216 
z
M 1403 2484 
Q 997 2584 770 2862 
Q 544 3141 544 3541 
Q 544 4100 942 4425 
Q 1341 4750 2034 4750 
Q 2731 4750 3128 4425 
Q 3525 4100 3525 3541 
Q 3525 3141 3298 2862 
Q 3072 2584 2669 2484 
Q 3125 2378 3379 2068 
Q 3634 1759 3634 1313 
Q 3634 634 3220 271 
Q 2806 -91 2034 -91 
Q 1263 -91 848 271 
Q 434 634 434 1313 
Q 434 1759 690 2068 
Q 947 2378 1403 2484 
z
M 1172 3481 
Q 1172 3119 1398 2916 
Q 1625 2713 2034 2713 
Q 2441 2713 2670 2916 
Q 2900 3119 2900 3481 
Q 2900 3844 2670 4047 
Q 2441 4250 2034 4250 
Q 1625 4250 1398 4047 
Q 1172 3844 1172 3481 
z
" transform="scale(0.015625)"/>
       </defs>
       <use xlink:href="#DejaVuSans-31" transform="translate(0 0.765625)"/>
       <use xlink:href="#DejaVuSans-30" transform="translate(63.623047 0.765625)"/>
       <use xlink:href="#DejaVuSans-2212" transform="translate(128.203125 39.046875) scale(0.7)"/>
       <use xlink:href="#DejaVuSans-38" transform="translate(186.855469 39.046875) scale(0.7)"/>
      </g>
     </g>
    </g>
    <g id="ytick_3">
     <g id="line2d_10">
      <g>
       <use xlink:href="#mef9db4a074" x="55.778125" y="255.0064" style="stroke: #000000; stroke-width: 0.8"/>
      </g>
     </g>
     <g id="text_11">
      <!-- $\mathdefault{10^{-5}}$ -->
      <g transform="translate(25.278125 258.805619) scale(0.1 -0.1)">
       <use xlink:href="#DejaVuSans-31" transform="translate(0 0.684375)"/>
       <use xlink:href="#DejaVuSans-30" transform="translate(63.623047 0.684375)"/>
       <use xlink:href="#DejaVuSans-2212" transform="translate(128.203125 38.965625) scale(0.7)"/>
       <use xlink:href="#DejaVuSans-35" transform="translate(186.855469 38.965625) scale(0.7)"/>
      </g>
     </g>
    </g>
    <g id="ytick_4">
     <g id="line2d_11">
      <g>
       <use xlink:href="#mef9db4a074" x="55.778125" y="215.0896" style="stroke: #000000; stroke-width: 0.8"/>
      </g>
     </g>
     <g id="text_12">
      <!-- $\mathdefault{10^{-2}}$ -->
      <g transform="translate(25.278125 218.888819) scale(0.1 -0.1)">
       <use xlink:href="#DejaVuSans-31" transform="translate(0 0.765625)"/>
       <use xlink:href="#DejaVuSans-30" transform="translate(63.623047 0.765625)"/>
       <use xlink:href="#DejaVuSans-2212" transform="translate(128.203125 39.046875) scale(0.7)"/>
       <use xlink:href="#DejaVuSans-32" transform="translate(186.855469 39.046875) scale(0.7)"/>
      </g>
     </g>
    </g>
    <g id="ytick_5">
     <g id="line2d_12">
      <g>
       <use xlink:href="#mef9db4a074" x="55.778125" y="175.1728" style="stroke: #000000; stroke-width: 0.8"/>
      </g>
     </g>
     <g id="text_13">
      <!-- $\mathdefault{10^{1}}$ -->
      <g transform="translate(31.178125 178.972019) scale(0.1 -0.1)">
       <use xlink:href="#DejaVuSans-31" transform="translate(0 0.684375)"/>
       <use xlink:href="#DejaVuSans-30" transform="translate(63.623047 0.684375)"/>
       <use xlink:href="#DejaVuSans-31" transform="translate(128.203125 38.965625) scale(0.7)"/>
      </g>
     </g>
    </g>
    <g id="ytick_6">
     <g id="line2d_13">
      <g>
       <use xlink:href="#mef9db4a074" x="55.778125" y="135.256" style="stroke: #000000; stroke-width: 0.8"/>
      </g>
     </g>
     <g id="text_14">
      <!-- $\mathdefault{10^{4}}$ -->
      <g transform="translate(31.178125 139.055219) scale(0.1 -0.1)">
       <defs>
        <path id="DejaVuSans-34" d="M 2419 4116 
L 825 1625 
L 2419 1625 
L 2419 4116 
z
M 2253 4666 
L 3047 4666 
L 3047 1625 
L 3713 1625 
L 3713 1100 
L 3047 1100 
L 3047 0 
L 2419 0 
L 2419 1100 
L 313 1100 
L 313 1709 
L 2253 4666 
z
" transform="scale(0.015625)"/>
       </defs>
       <use xlink:href="#DejaVuSans-31" transform="translate(0 0.684375)"/>
       <use xlink:href="#DejaVuSans-30" transform="translate(63.623047 0.684375)"/>
       <use xlink:href="#DejaVuSans-34" transform="translate(128.203125 38.965625) scale(0.7)"/>
      </g>
     </g>
    </g>
    <g id="ytick_7">
     <g id="line2d_14">
      <g>
       <use xlink:href="#mef9db4a074" x="55.778125" y="95.3392" style="stroke: #000000; stroke-width: 0.8"/>
      </g>
     </g>
     <g id="text_15">
      <!-- $\mathdefault{10^{7}}$ -->
      <g transform="translate(31.178125 99.138419) scale(0.1 -0.1)">
       <defs>
        <path id="DejaVuSans-37" d="M 525 4666 
L 3525 4666 
L 3525 4397 
L 1831 0 
L 1172 0 
L 2766 4134 
L 525 4134 
L 525 4666 
z
" transform="scale(0.015625)"/>
       </defs>
       <use xlink:href="#DejaVuSans-31" transform="translate(0 0.684375)"/>
       <use xlink:href="#DejaVuSans-30" transform="translate(63.623047 0.684375)"/>
       <use xlink:href="#DejaVuSans-37" transform="translate(128.203125 38.965625) scale(0.7)"/>
      </g>
     </g>
    </g>
    <g id="text_16">
     <!-- Energy Consumption [kWh] -->
     <g transform="translate(14.798438 270.492594) rotate(-90) scale(0.1 -0.1)">
      <defs>
       <path id="DejaVuSans-45" d="M 628 4666 
L 3578 4666 
L 3578 4134 
L 1259 4134 
L 1259 2753 
L 3481 2753 
L 3481 2222 
L 1259 2222 
L 1259 531 
L 3634 531 
L 3634 0 
L 628 0 
L 628 4666 
z
" transform="scale(0.015625)"/>
       <path id="DejaVuSans-65" d="M 3597 1894 
L 3597 1613 
L 953 1613 
Q 991 1019 1311 708 
Q 1631 397 2203 397 
Q 2534 397 2845 478 
Q 3156 559 3463 722 
L 3463 178 
Q 3153 47 2828 -22 
Q 2503 -91 2169 -91 
Q 1331 -91 842 396 
Q 353 884 353 1716 
Q 353 2575 817 3079 
Q 1281 3584 2069 3584 
Q 2775 3584 3186 3129 
Q 3597 2675 3597 1894 
z
M 3022 2063 
Q 3016 2534 2758 2815 
Q 2500 3097 2075 3097 
Q 1594 3097 1305 2825 
Q 1016 2553 972 2059 
L 3022 2063 
z
" transform="scale(0.015625)"/>
       <path id="DejaVuSans-79" d="M 2059 -325 
Q 1816 -950 1584 -1140 
Q 1353 -1331 966 -1331 
L 506 -1331 
L 506 -850 
L 844 -850 
Q 1081 -850 1212 -737 
Q 1344 -625 1503 -206 
L 1606 56 
L 191 3500 
L 800 3500 
L 1894 763 
L 2988 3500 
L 3597 3500 
L 2059 -325 
z
" transform="scale(0.015625)"/>
       <path id="DejaVuSans-20" transform="scale(0.015625)"/>
       <path id="DejaVuSans-75" d="M 544 1381 
L 544 3500 
L 1119 3500 
L 1119 1403 
Q 1119 906 1312 657 
Q 1506 409 1894 409 
Q 2359 409 2629 706 
Q 2900 1003 2900 1516 
L 2900 3500 
L 3475 3500 
L 3475 0 
L 2900 0 
L 2900 538 
Q 2691 219 2414 64 
Q 2138 -91 1772 -91 
Q 1169 -91 856 284 
Q 544 659 544 1381 
z
M 1991 3584 
L 1991 3584 
z
" transform="scale(0.015625)"/>
       <path id="DejaVuSans-6d" d="M 3328 2828 
Q 3544 3216 3844 3400 
Q 4144 3584 4550 3584 
Q 5097 3584 5394 3201 
Q 5691 2819 5691 2113 
L 5691 0 
L 5113 0 
L 5113 2094 
Q 5113 2597 4934 2840 
Q 4756 3084 4391 3084 
Q 3944 3084 3684 2787 
Q 3425 2491 3425 1978 
L 3425 0 
L 2847 0 
L 2847 2094 
Q 2847 2600 2669 2842 
Q 2491 3084 2119 3084 
Q 1678 3084 1418 2786 
Q 1159 2488 1159 1978 
L 1159 0 
L 581 0 
L 581 3500 
L 1159 3500 
L 1159 2956 
Q 1356 3278 1631 3431 
Q 1906 3584 2284 3584 
Q 2666 3584 2933 3390 
Q 3200 3197 3328 2828 
z
" transform="scale(0.015625)"/>
       <path id="DejaVuSans-70" d="M 1159 525 
L 1159 -1331 
L 581 -1331 
L 581 3500 
L 1159 3500 
L 1159 2969 
Q 1341 3281 1617 3432 
Q 1894 3584 2278 3584 
Q 2916 3584 3314 3078 
Q 3713 2572 3713 1747 
Q 3713 922 3314 415 
Q 2916 -91 2278 -91 
Q 1894 -91 1617 61 
Q 1341 213 1159 525 
z
M 3116 1747 
Q 3116 2381 2855 2742 
Q 2594 3103 2138 3103 
Q 1681 3103 1420 2742 
Q 1159 2381 1159 1747 
Q 1159 1113 1420 752 
Q 1681 391 2138 391 
Q 2594 391 2855 752 
Q 3116 1113 3116 1747 
z
" transform="scale(0.015625)"/>
       <path id="DejaVuSans-74" d="M 1172 4494 
L 1172 3500 
L 2356 3500 
L 2356 3053 
L 1172 3053 
L 1172 1153 
Q 1172 725 1289 603 
Q 1406 481 1766 481 
L 2356 481 
L 2356 0 
L 1766 0 
Q 1100 0 847 248 
Q 594 497 594 1153 
L 594 3053 
L 172 3053 
L 172 3500 
L 594 3500 
L 594 4494 
L 1172 4494 
z
" transform="scale(0.015625)"/>
       <path id="DejaVuSans-5b" d="M 550 4863 
L 1875 4863 
L 1875 4416 
L 1125 4416 
L 1125 -397 
L 1875 -397 
L 1875 -844 
L 550 -844 
L 550 4863 
z
" transform="scale(0.015625)"/>
       <path id="DejaVuSans-6b" d="M 581 4863 
L 1159 4863 
L 1159 1991 
L 2875 3500 
L 3609 3500 
L 1753 1863 
L 3688 0 
L 2938 0 
L 1159 1709 
L 1159 0 
L 581 0 
L 581 4863 
z
" transform="scale(0.015625)"/>
       <path id="DejaVuSans-57" d="M 213 4666 
L 850 4666 
L 1831 722 
L 2809 4666 
L 3519 4666 
L 4500 722 
L 5478 4666 
L 6119 4666 
L 4947 0 
L 4153 0 
L 3169 4050 
L 2175 0 
L 1381 0 
L 213 4666 
z
" transform="scale(0.015625)"/>
       <path id="DejaVuSans-68" d="M 3513 2113 
L 3513 0 
L 2938 0 
L 2938 2094 
Q 2938 2591 2744 2837 
Q 2550 3084 2163 3084 
Q 1697 3084 1428 2787 
Q 1159 2491 1159 1978 
L 1159 0 
L 581 0 
L 581 4863 
L 1159 4863 
L 1159 2956 
Q 1366 3272 1645 3428 
Q 1925 3584 2291 3584 
Q 2894 3584 3203 3211 
Q 3513 2838 3513 2113 
z
" transform="scale(0.015625)"/>
       <path id="DejaVuSans-5d" d="M 1947 4863 
L 1947 -844 
L 622 -844 
L 622 -397 
L 1369 -397 
L 1369 4416 
L 622 4416 
L 622 4863 
L 1947 4863 
z
" transform="scale(0.015625)"/>
      </defs>
      <use xlink:href="#DejaVuSans-45"/>
      <use xlink:href="#DejaVuSans-6e" x="63.183594"/>
      <use xlink:href="#DejaVuSans-65" x="126.5625"/>
      <use xlink:href="#DejaVuSans-72" x="188.085938"/>
      <use xlink:href="#DejaVuSans-67" x="227.449219"/>
      <use xlink:href="#DejaVuSans-79" x="290.925781"/>
      <use xlink:href="#DejaVuSans-20" x="350.105469"/>
      <use xlink:href="#DejaVuSans-43" x="381.892578"/>
      <use xlink:href="#DejaVuSans-6f" x="451.716797"/>
      <use xlink:href="#DejaVuSans-6e" x="512.898438"/>
      <use xlink:href="#DejaVuSans-73" x="576.277344"/>
      <use xlink:href="#DejaVuSans-75" x="628.376953"/>
      <use xlink:href="#DejaVuSans-6d" x="691.755859"/>
      <use xlink:href="#DejaVuSans-70" x="789.167969"/>
      <use xlink:href="#DejaVuSans-74" x="852.644531"/>
      <use xlink:href="#DejaVuSans-69" x="891.853516"/>
      <use xlink:href="#DejaVuSans-6f" x="919.636719"/>
      <use xlink:href="#DejaVuSans-6e" x="980.818359"/>
      <use xlink:href="#DejaVuSans-20" x="1044.197266"/>
      <use xlink:href="#DejaVuSans-5b" x="1075.984375"/>
      <use xlink:href="#DejaVuSans-6b" x="1114.998047"/>
      <use xlink:href="#DejaVuSans-57" x="1172.908203"/>
      <use xlink:href="#DejaVuSans-68" x="1271.785156"/>
      <use xlink:href="#DejaVuSans-5d" x="1335.164062"/>
     </g>
    </g>
   </g>
   <g id="line2d_15">
    <path d="M 56.407025 151.791939 
L 65.246201 150.607221 
L 75.348117 149.496882 
L 87.975512 148.35483 
L 103.128386 147.228549 
L 120.806738 146.143281 
L 142.273309 145.051718 
L 168.790838 143.937656 
L 200.359325 142.842137 
L 238.24151 141.753843 
L 284.96287 140.644145 
L 340.523407 139.553248 
L 408.711339 138.446329 
L 456.038125 137.786333 
L 456.038125 137.786333 
" clip-path="url(#p43a474b7b5)" style="fill: none; stroke-dasharray: 5.55,2.4; stroke-dashoffset: 0; stroke: #000000; stroke-width: 1.5"/>
   </g>
   <g id="line2d_16">
    <path d="M 56.407025 329.111355 
L 61.457983 326.067343 
L 76.610856 316.729264 
L 87.975512 309.315572 
L 120.806738 287.590277 
L 151.112486 267.396597 
L 186.469191 243.462775 
L 316.531357 154.852127 
L 456.038125 59.723503 
L 456.038125 59.723503 
" clip-path="url(#p43a474b7b5)" style="fill: none; stroke: #000000; stroke-width: 1.5; stroke-linecap: square"/>
   </g>
   <g id="patch_3">
    <path d="M 55.778125 334.84 
L 55.778125 68.728 
" style="fill: none; stroke: #000000; stroke-width: 0.8; stroke-linejoin: miter; stroke-linecap: square"/>
   </g>
   <g id="patch_4">
    <path d="M 55.778125 334.84 
L 412.898125 334.84 
" style="fill: none; stroke: #000000; stroke-width: 0.8; stroke-linejoin: miter; stroke-linecap: square"/>
   </g>
   <g id="patch_5">
    <path d="M 55.778125 68.728 
L 412.898125 68.728 
" style="fill: none; stroke: #000000; stroke-width: 0.8; stroke-linejoin: miter; stroke-linecap: square"/>
   </g>
   <g id="legend_1">
    <g id="line2d_17">
     <path d="M 24.838125 16.7 
L 34.838125 16.7 
L 44.838125 16.7 
" style="fill: none; stroke: #000000; stroke-width: 1.5; stroke-linecap: square"/>
    </g>
    <g id="text_17">
     <!-- $\mathtt{mpo-proj}$ on JEDI ($2.6\cdot 10^{17}$ FLOPS/kWh) -->
     <g transform="translate(52.838125 20.2) scale(0.1 -0.1)">
      <defs>
       <path id="DejaVuSansMono-6d" d="M 2113 3144 
Q 2219 3369 2383 3476 
Q 2547 3584 2778 3584 
Q 3200 3584 3373 3257 
Q 3547 2931 3547 2028 
L 3547 0 
L 3022 0 
L 3022 2003 
Q 3022 2744 2939 2923 
Q 2856 3103 2638 3103 
Q 2388 3103 2295 2911 
Q 2203 2719 2203 2003 
L 2203 0 
L 1678 0 
L 1678 2003 
Q 1678 2753 1589 2928 
Q 1500 3103 1269 3103 
Q 1041 3103 952 2911 
Q 863 2719 863 2003 
L 863 0 
L 341 0 
L 341 3500 
L 863 3500 
L 863 3200 
Q 966 3388 1120 3486 
Q 1275 3584 1472 3584 
Q 1709 3584 1867 3475 
Q 2025 3366 2113 3144 
z
" transform="scale(0.015625)"/>
       <path id="DejaVuSansMono-70" d="M 1172 441 
L 1172 -1331 
L 594 -1331 
L 594 3500 
L 1172 3500 
L 1172 3053 
Q 1316 3313 1555 3448 
Q 1794 3584 2106 3584 
Q 2741 3584 3102 3093 
Q 3463 2603 3463 1734 
Q 3463 881 3100 395 
Q 2738 -91 2106 -91 
Q 1788 -91 1548 45 
Q 1309 181 1172 441 
z
M 2859 1747 
Q 2859 2416 2648 2756 
Q 2438 3097 2022 3097 
Q 1603 3097 1387 2755 
Q 1172 2413 1172 1747 
Q 1172 1084 1387 740 
Q 1603 397 2022 397 
Q 2438 397 2648 737 
Q 2859 1078 2859 1747 
z
" transform="scale(0.015625)"/>
       <path id="DejaVuSansMono-6f" d="M 1925 3097 
Q 1488 3097 1263 2756 
Q 1038 2416 1038 1747 
Q 1038 1081 1263 739 
Q 1488 397 1925 397 
Q 2366 397 2591 739 
Q 2816 1081 2816 1747 
Q 2816 2416 2591 2756 
Q 2366 3097 1925 3097 
z
M 1925 3584 
Q 2653 3584 3039 3112 
Q 3425 2641 3425 1747 
Q 3425 850 3040 379 
Q 2656 -91 1925 -91 
Q 1197 -91 812 379 
Q 428 850 428 1747 
Q 428 2641 812 3112 
Q 1197 3584 1925 3584 
z
" transform="scale(0.015625)"/>
       <path id="DejaVuSansMono-2212" d="M 275 2272 
L 3578 2272 
L 3578 1741 
L 275 1741 
L 275 2272 
z
" transform="scale(0.015625)"/>
       <path id="DejaVuSansMono-72" d="M 3609 2778 
Q 3425 2922 3234 2987 
Q 3044 3053 2816 3053 
Q 2278 3053 1993 2715 
Q 1709 2378 1709 1741 
L 1709 0 
L 1131 0 
L 1131 3500 
L 1709 3500 
L 1709 2816 
Q 1853 3188 2151 3386 
Q 2450 3584 2859 3584 
Q 3072 3584 3256 3531 
Q 3441 3478 3609 3366 
L 3609 2778 
z
" transform="scale(0.015625)"/>
       <path id="DejaVuSansMono-6a" d="M 1875 -63 
L 1875 3053 
L 884 3053 
L 884 3500 
L 2450 3500 
L 2450 -63 
Q 2450 -672 2170 -1001 
Q 1891 -1331 1375 -1331 
L 581 -1331 
L 581 -844 
L 1313 -844 
Q 1594 -844 1734 -648 
Q 1875 -453 1875 -63 
z
M 1875 4863 
L 2450 4863 
L 2450 4134 
L 1875 4134 
L 1875 4863 
z
" transform="scale(0.015625)"/>
       <path id="DejaVuSans-4a" d="M 628 4666 
L 1259 4666 
L 1259 325 
Q 1259 -519 939 -900 
Q 619 -1281 -91 -1281 
L -331 -1281 
L -331 -750 
L -134 -750 
Q 284 -750 456 -515 
Q 628 -281 628 325 
L 628 4666 
z
" transform="scale(0.015625)"/>
       <path id="DejaVuSans-44" d="M 1259 4147 
L 1259 519 
L 2022 519 
Q 2988 519 3436 956 
Q 3884 1394 3884 2338 
Q 3884 3275 3436 3711 
Q 2988 4147 2022 4147 
L 1259 4147 
z
M 628 4666 
L 1925 4666 
Q 3281 4666 3915 4102 
Q 4550 3538 4550 2338 
Q 4550 1131 3912 565 
Q 3275 0 1925 0 
L 628 0 
L 628 4666 
z
" transform="scale(0.015625)"/>
       <path id="DejaVuSans-49" d="M 628 4666 
L 1259 4666 
L 1259 0 
L 628 0 
L 628 4666 
z
" transform="scale(0.015625)"/>
       <path id="DejaVuSans-28" d="M 1984 4856 
Q 1566 4138 1362 3434 
Q 1159 2731 1159 2009 
Q 1159 1288 1364 580 
Q 1569 -128 1984 -844 
L 1484 -844 
Q 1016 -109 783 600 
Q 550 1309 550 2009 
Q 550 2706 781 3412 
Q 1013 4119 1484 4856 
L 1984 4856 
z
" transform="scale(0.015625)"/>
       <path id="DejaVuSans-2e" d="M 684 794 
L 1344 794 
L 1344 0 
L 684 0 
L 684 794 
z
" transform="scale(0.015625)"/>
       <path id="DejaVuSans-36" d="M 2113 2584 
Q 1688 2584 1439 2293 
Q 1191 2003 1191 1497 
Q 1191 994 1439 701 
Q 1688 409 2113 409 
Q 2538 409 2786 701 
Q 3034 994 3034 1497 
Q 3034 2003 2786 2293 
Q 2538 2584 2113 2584 
z
M 3366 4563 
L 3366 3988 
Q 3128 4100 2886 4159 
Q 2644 4219 2406 4219 
Q 1781 4219 1451 3797 
Q 1122 3375 1075 2522 
Q 1259 2794 1537 2939 
Q 1816 3084 2150 3084 
Q 2853 3084 3261 2657 
Q 3669 2231 3669 1497 
Q 3669 778 3244 343 
Q 2819 -91 2113 -91 
Q 1303 -91 875 529 
Q 447 1150 447 2328 
Q 447 3434 972 4092 
Q 1497 4750 2381 4750 
Q 2619 4750 2861 4703 
Q 3103 4656 3366 4563 
z
" transform="scale(0.015625)"/>
       <path id="DejaVuSans-22c5" d="M 684 2619 
L 1344 2619 
L 1344 1825 
L 684 1825 
L 684 2619 
z
" transform="scale(0.015625)"/>
       <path id="DejaVuSans-46" d="M 628 4666 
L 3309 4666 
L 3309 4134 
L 1259 4134 
L 1259 2759 
L 3109 2759 
L 3109 2228 
L 1259 2228 
L 1259 0 
L 628 0 
L 628 4666 
z
" transform="scale(0.015625)"/>
       <path id="DejaVuSans-4c" d="M 628 4666 
L 1259 4666 
L 1259 531 
L 3531 531 
L 3531 0 
L 628 0 
L 628 4666 
z
" transform="scale(0.015625)"/>
       <path id="DejaVuSans-4f" d="M 2522 4238 
Q 1834 4238 1429 3725 
Q 1025 3213 1025 2328 
Q 1025 1447 1429 934 
Q 1834 422 2522 422 
Q 3209 422 3611 934 
Q 4013 1447 4013 2328 
Q 4013 3213 3611 3725 
Q 3209 4238 2522 4238 
z
M 2522 4750 
Q 3503 4750 4090 4092 
Q 4678 3434 4678 2328 
Q 4678 1225 4090 567 
Q 3503 -91 2522 -91 
Q 1538 -91 948 565 
Q 359 1222 359 2328 
Q 359 3434 948 4092 
Q 1538 4750 2522 4750 
z
" transform="scale(0.015625)"/>
       <path id="DejaVuSans-50" d="M 1259 4147 
L 1259 2394 
L 2053 2394 
Q 2494 2394 2734 2622 
Q 2975 2850 2975 3272 
Q 2975 3691 2734 3919 
Q 2494 4147 2053 4147 
L 1259 4147 
z
M 628 4666 
L 2053 4666 
Q 2838 4666 3239 4311 
Q 3641 3956 3641 3272 
Q 3641 2581 3239 2228 
Q 2838 1875 2053 1875 
L 1259 1875 
L 1259 0 
L 628 0 
L 628 4666 
z
" transform="scale(0.015625)"/>
       <path id="DejaVuSans-53" d="M 3425 4513 
L 3425 3897 
Q 3066 4069 2747 4153 
Q 2428 4238 2131 4238 
Q 1616 4238 1336 4038 
Q 1056 3838 1056 3469 
Q 1056 3159 1242 3001 
Q 1428 2844 1947 2747 
L 2328 2669 
Q 3034 2534 3370 2195 
Q 3706 1856 3706 1288 
Q 3706 609 3251 259 
Q 2797 -91 1919 -91 
Q 1588 -91 1214 -16 
Q 841 59 441 206 
L 441 856 
Q 825 641 1194 531 
Q 1563 422 1919 422 
Q 2459 422 2753 634 
Q 3047 847 3047 1241 
Q 3047 1584 2836 1778 
Q 2625 1972 2144 2069 
L 1759 2144 
Q 1053 2284 737 2584 
Q 422 2884 422 3419 
Q 422 4038 858 4394 
Q 1294 4750 2059 4750 
Q 2388 4750 2728 4690 
Q 3069 4631 3425 4513 
z
" transform="scale(0.015625)"/>
       <path id="DejaVuSans-2f" d="M 1625 4666 
L 2156 4666 
L 531 -594 
L 0 -594 
L 1625 4666 
z
" transform="scale(0.015625)"/>
       <path id="DejaVuSans-29" d="M 513 4856 
L 1013 4856 
Q 1481 4119 1714 3412 
Q 1947 2706 1947 2009 
Q 1947 1309 1714 600 
Q 1481 -109 1013 -844 
L 513 -844 
Q 928 -128 1133 580 
Q 1338 1288 1338 2009 
Q 1338 2731 1133 3434 
Q 928 4138 513 4856 
z
" transform="scale(0.015625)"/>
      </defs>
      <use xlink:href="#DejaVuSansMono-6d" transform="translate(0 0.684375)"/>
      <use xlink:href="#DejaVuSansMono-70" transform="translate(60.205078 0.684375)"/>
      <use xlink:href="#DejaVuSansMono-6f" transform="translate(120.410156 0.684375)"/>
      <use xlink:href="#DejaVuSansMono-2212" transform="translate(200.097656 0.684375)"/>
      <use xlink:href="#DejaVuSansMono-70" transform="translate(279.785156 0.684375)"/>
      <use xlink:href="#DejaVuSansMono-72" transform="translate(339.990234 0.684375)"/>
      <use xlink:href="#DejaVuSansMono-6f" transform="translate(400.195312 0.684375)"/>
      <use xlink:href="#DejaVuSansMono-6a" transform="translate(460.400391 0.684375)"/>
      <use xlink:href="#DejaVuSans-20" transform="translate(520.605469 0.684375)"/>
      <use xlink:href="#DejaVuSans-6f" transform="translate(552.392578 0.684375)"/>
      <use xlink:href="#DejaVuSans-6e" transform="translate(613.574219 0.684375)"/>
      <use xlink:href="#DejaVuSans-20" transform="translate(676.953125 0.684375)"/>
      <use xlink:href="#DejaVuSans-4a" transform="translate(708.740234 0.684375)"/>
      <use xlink:href="#DejaVuSans-45" transform="translate(738.232422 0.684375)"/>
      <use xlink:href="#DejaVuSans-44" transform="translate(801.416016 0.684375)"/>
      <use xlink:href="#DejaVuSans-49" transform="translate(878.417969 0.684375)"/>
      <use xlink:href="#DejaVuSans-20" transform="translate(907.910156 0.684375)"/>
      <use xlink:href="#DejaVuSans-28" transform="translate(939.697266 0.684375)"/>
      <use xlink:href="#DejaVuSans-32" transform="translate(978.710938 0.684375)"/>
      <use xlink:href="#DejaVuSans-2e" transform="translate(1042.333984 0.684375)"/>
      <use xlink:href="#DejaVuSans-36" transform="translate(1074.121094 0.684375)"/>
      <use xlink:href="#DejaVuSans-22c5" transform="translate(1157.226562 0.684375)"/>
      <use xlink:href="#DejaVuSans-31" transform="translate(1208.496094 0.684375)"/>
      <use xlink:href="#DejaVuSans-30" transform="translate(1272.119141 0.684375)"/>
      <use xlink:href="#DejaVuSans-31" transform="translate(1336.699219 38.965625) scale(0.7)"/>
      <use xlink:href="#DejaVuSans-37" transform="translate(1381.235352 38.965625) scale(0.7)"/>
      <use xlink:href="#DejaVuSans-20" transform="translate(1428.505859 0.684375)"/>
      <use xlink:href="#DejaVuSans-46" transform="translate(1460.292969 0.684375)"/>
      <use xlink:href="#DejaVuSans-4c" transform="translate(1517.8125 0.684375)"/>
      <use xlink:href="#DejaVuSans-4f" transform="translate(1573.525391 0.684375)"/>
      <use xlink:href="#DejaVuSans-50" transform="translate(1652.236328 0.684375)"/>
      <use xlink:href="#DejaVuSans-53" transform="translate(1712.539062 0.684375)"/>
      <use xlink:href="#DejaVuSans-2f" transform="translate(1776.015625 0.684375)"/>
      <use xlink:href="#DejaVuSans-6b" transform="translate(1809.707031 0.684375)"/>
      <use xlink:href="#DejaVuSans-57" transform="translate(1867.617188 0.684375)"/>
      <use xlink:href="#DejaVuSans-68" transform="translate(1966.494141 0.684375)"/>
      <use xlink:href="#DejaVuSans-29" transform="translate(2029.873047 0.684375)"/>
     </g>
    </g>
    <g id="line2d_18">
     <path d="M 279.738125 16.7 
L 289.738125 16.7 
L 299.738125 16.7 
" style="fill: none; stroke-dasharray: 5.55,2.4; stroke-dashoffset: 0; stroke: #000000; stroke-width: 1.5"/>
    </g>
    <g id="text_18">
     <!-- $\mathtt{cfev}$ (30ms/layer at 75kW) -->
     <g transform="translate(307.738125 20.2) scale(0.1 -0.1)">
      <defs>
       <path id="DejaVuSansMono-63" d="M 3316 178 
Q 3084 44 2839 -23 
Q 2594 -91 2338 -91 
Q 1525 -91 1067 396 
Q 609 884 609 1747 
Q 609 2609 1067 3096 
Q 1525 3584 2338 3584 
Q 2591 3584 2831 3518 
Q 3072 3453 3316 3316 
L 3316 2713 
Q 3088 2916 2858 3006 
Q 2628 3097 2338 3097 
Q 1797 3097 1506 2747 
Q 1216 2397 1216 1747 
Q 1216 1100 1508 748 
Q 1800 397 2338 397 
Q 2638 397 2875 489 
Q 3113 581 3316 775 
L 3316 178 
z
" transform="scale(0.015625)"/>
       <path id="DejaVuSansMono-66" d="M 3322 4863 
L 3322 4384 
L 2669 4384 
Q 2359 4384 2239 4257 
Q 2119 4131 2119 3809 
L 2119 3500 
L 3322 3500 
L 3322 3053 
L 2119 3053 
L 2119 0 
L 1544 0 
L 1544 3053 
L 609 3053 
L 609 3500 
L 1544 3500 
L 1544 3744 
Q 1544 4319 1808 4591 
Q 2072 4863 2631 4863 
L 3322 4863 
z
" transform="scale(0.015625)"/>
       <path id="DejaVuSansMono-65" d="M 3475 1894 
L 3475 1613 
L 984 1613 
L 984 1594 
Q 984 1022 1282 709 
Q 1581 397 2125 397 
Q 2400 397 2700 484 
Q 3000 572 3341 750 
L 3341 178 
Q 3013 44 2708 -23 
Q 2403 -91 2119 -91 
Q 1303 -91 843 398 
Q 384 888 384 1747 
Q 384 2584 834 3084 
Q 1284 3584 2034 3584 
Q 2703 3584 3089 3131 
Q 3475 2678 3475 1894 
z
M 2900 2063 
Q 2888 2569 2661 2833 
Q 2434 3097 2009 3097 
Q 1594 3097 1325 2822 
Q 1056 2547 1006 2059 
L 2900 2063 
z
" transform="scale(0.015625)"/>
       <path id="DejaVuSansMono-76" d="M 313 3500 
L 909 3500 
L 1925 563 
L 2944 3500 
L 3541 3500 
L 2297 0 
L 1556 0 
L 313 3500 
z
" transform="scale(0.015625)"/>
       <path id="DejaVuSans-6c" d="M 603 4863 
L 1178 4863 
L 1178 0 
L 603 0 
L 603 4863 
z
" transform="scale(0.015625)"/>
       <path id="DejaVuSans-61" d="M 2194 1759 
Q 1497 1759 1228 1600 
Q 959 1441 959 1056 
Q 959 750 1161 570 
Q 1363 391 1709 391 
Q 2188 391 2477 730 
Q 2766 1069 2766 1631 
L 2766 1759 
L 2194 1759 
z
M 3341 1997 
L 3341 0 
L 2766 0 
L 2766 531 
Q 2569 213 2275 61 
Q 1981 -91 1556 -91 
Q 1019 -91 701 211 
Q 384 513 384 1019 
Q 384 1609 779 1909 
Q 1175 2209 1959 2209 
L 2766 2209 
L 2766 2266 
Q 2766 2663 2505 2880 
Q 2244 3097 1772 3097 
Q 1472 3097 1187 3025 
Q 903 2953 641 2809 
L 641 3341 
Q 956 3463 1253 3523 
Q 1550 3584 1831 3584 
Q 2591 3584 2966 3190 
Q 3341 2797 3341 1997 
z
" transform="scale(0.015625)"/>
      </defs>
      <use xlink:href="#DejaVuSansMono-63" transform="translate(0 0.015625)"/>
      <use xlink:href="#DejaVuSansMono-66" transform="translate(60.205078 0.015625)"/>
      <use xlink:href="#DejaVuSansMono-65" transform="translate(120.410156 0.015625)"/>
      <use xlink:href="#DejaVuSansMono-76" transform="translate(180.615234 0.015625)"/>
      <use xlink:href="#DejaVuSans-20" transform="translate(240.820312 0.015625)"/>
      <use xlink:href="#DejaVuSans-28" transform="translate(272.607422 0.015625)"/>
      <use xlink:href="#DejaVuSans-33" transform="translate(311.621094 0.015625)"/>
      <use xlink:href="#DejaVuSans-30" transform="translate(375.244141 0.015625)"/>
      <use xlink:href="#DejaVuSans-6d" transform="translate(438.867188 0.015625)"/>
      <use xlink:href="#DejaVuSans-73" transform="translate(536.279297 0.015625)"/>
      <use xlink:href="#DejaVuSans-2f" transform="translate(588.378906 0.015625)"/>
      <use xlink:href="#DejaVuSans-6c" transform="translate(622.070312 0.015625)"/>
      <use xlink:href="#DejaVuSans-61" transform="translate(649.853516 0.015625)"/>
      <use xlink:href="#DejaVuSans-79" transform="translate(711.132812 0.015625)"/>
      <use xlink:href="#DejaVuSans-65" transform="translate(770.3125 0.015625)"/>
      <use xlink:href="#DejaVuSans-72" transform="translate(831.835938 0.015625)"/>
      <use xlink:href="#DejaVuSans-20" transform="translate(872.949219 0.015625)"/>
      <use xlink:href="#DejaVuSans-61" transform="translate(904.736328 0.015625)"/>
      <use xlink:href="#DejaVuSans-74" transform="translate(966.015625 0.015625)"/>
      <use xlink:href="#DejaVuSans-20" transform="translate(1005.224609 0.015625)"/>
      <use xlink:href="#DejaVuSans-37" transform="translate(1037.011719 0.015625)"/>
      <use xlink:href="#DejaVuSans-35" transform="translate(1100.634766 0.015625)"/>
      <use xlink:href="#DejaVuSans-6b" transform="translate(1164.257812 0.015625)"/>
      <use xlink:href="#DejaVuSans-57" transform="translate(1222.167969 0.015625)"/>
      <use xlink:href="#DejaVuSans-29" transform="translate(1321.044922 0.015625)"/>
     </g>
    </g>
   </g>
  </g>
  <g id="axes_2">
   <g id="matplotlib.axis_3">
    <g id="xtick_8">
     <g id="line2d_19">
      <defs>
       <path id="m53f01d10d2" d="M 0 0 
L 0 -3.5 
" style="stroke: #000000; stroke-width: 0.8"/>
      </defs>
      <g>
       <use xlink:href="#m53f01d10d2" x="86.185934" y="68.728" style="stroke: #000000; stroke-width: 0.8"/>
      </g>
     </g>
     <g id="text_19">
      <!-- 20 -->
      <g transform="translate(79.823434 59.648312) scale(0.1 -0.1)">
       <use xlink:href="#DejaVuSans-32"/>
       <use xlink:href="#DejaVuSans-30" x="63.623047"/>
      </g>
     </g>
    </g>
    <g id="xtick_9">
     <g id="line2d_20">
      <g>
       <use xlink:href="#m53f01d10d2" x="132.402614" y="68.728" style="stroke: #000000; stroke-width: 0.8"/>
      </g>
     </g>
     <g id="text_20">
      <!-- 30 -->
      <g transform="translate(126.040114 59.648312) scale(0.1 -0.1)">
       <use xlink:href="#DejaVuSans-33"/>
       <use xlink:href="#DejaVuSans-30" x="63.623047"/>
      </g>
     </g>
    </g>
    <g id="xtick_10">
     <g id="line2d_21">
      <g>
       <use xlink:href="#m53f01d10d2" x="178.619294" y="68.728" style="stroke: #000000; stroke-width: 0.8"/>
      </g>
     </g>
     <g id="text_21">
      <!-- 40 -->
      <g transform="translate(172.256794 59.648312) scale(0.1 -0.1)">
       <use xlink:href="#DejaVuSans-34"/>
       <use xlink:href="#DejaVuSans-30" x="63.623047"/>
      </g>
     </g>
    </g>
    <g id="xtick_11">
     <g id="line2d_22">
      <g>
       <use xlink:href="#m53f01d10d2" x="224.835973" y="68.728" style="stroke: #000000; stroke-width: 0.8"/>
      </g>
     </g>
     <g id="text_22">
      <!-- 50 -->
      <g transform="translate(218.473473 59.648312) scale(0.1 -0.1)">
       <use xlink:href="#DejaVuSans-35"/>
       <use xlink:href="#DejaVuSans-30" x="63.623047"/>
      </g>
     </g>
    </g>
    <g id="xtick_12">
     <g id="line2d_23">
      <g>
       <use xlink:href="#m53f01d10d2" x="271.052653" y="68.728" style="stroke: #000000; stroke-width: 0.8"/>
      </g>
     </g>
     <g id="text_23">
      <!-- 60 -->
      <g transform="translate(264.690153 59.648312) scale(0.1 -0.1)">
       <use xlink:href="#DejaVuSans-36"/>
       <use xlink:href="#DejaVuSans-30" x="63.623047"/>
      </g>
     </g>
    </g>
    <g id="xtick_13">
     <g id="line2d_24">
      <g>
       <use xlink:href="#m53f01d10d2" x="317.269333" y="68.728" style="stroke: #000000; stroke-width: 0.8"/>
      </g>
     </g>
     <g id="text_24">
      <!-- 70 -->
      <g transform="translate(310.906833 59.648312) scale(0.1 -0.1)">
       <use xlink:href="#DejaVuSans-37"/>
       <use xlink:href="#DejaVuSans-30" x="63.623047"/>
      </g>
     </g>
    </g>
    <g id="xtick_14">
     <g id="line2d_25">
      <g>
       <use xlink:href="#m53f01d10d2" x="363.486013" y="68.728" style="stroke: #000000; stroke-width: 0.8"/>
      </g>
     </g>
     <g id="text_25">
      <!-- 80 -->
      <g transform="translate(357.123513 59.648312) scale(0.1 -0.1)">
       <use xlink:href="#DejaVuSans-38"/>
       <use xlink:href="#DejaVuSans-30" x="63.623047"/>
      </g>
     </g>
    </g>
    <g id="xtick_15">
     <g id="line2d_26">
      <g>
       <use xlink:href="#m53f01d10d2" x="409.702693" y="68.728" style="stroke: #000000; stroke-width: 0.8"/>
      </g>
     </g>
     <g id="text_26">
      <!-- 90 -->
      <g transform="translate(403.340193 59.648312) scale(0.1 -0.1)">
       <defs>
        <path id="DejaVuSans-39" d="M 703 97 
L 703 672 
Q 941 559 1184 500 
Q 1428 441 1663 441 
Q 2288 441 2617 861 
Q 2947 1281 2994 2138 
Q 2813 1869 2534 1725 
Q 2256 1581 1919 1581 
Q 1219 1581 811 2004 
Q 403 2428 403 3163 
Q 403 3881 828 4315 
Q 1253 4750 1959 4750 
Q 2769 4750 3195 4129 
Q 3622 3509 3622 2328 
Q 3622 1225 3098 567 
Q 2575 -91 1691 -91 
Q 1453 -91 1209 -44 
Q 966 3 703 97 
z
M 1959 2075 
Q 2384 2075 2632 2365 
Q 2881 2656 2881 3163 
Q 2881 3666 2632 3958 
Q 2384 4250 1959 4250 
Q 1534 4250 1286 3958 
Q 1038 3666 1038 3163 
Q 1038 2656 1286 2365 
Q 1534 2075 1959 2075 
z
" transform="scale(0.015625)"/>
       </defs>
       <use xlink:href="#DejaVuSans-39"/>
       <use xlink:href="#DejaVuSans-30" x="63.623047"/>
      </g>
     </g>
    </g>
    <g id="text_27">
     <!-- Strands -->
     <g transform="translate(215.136563 48.049875) scale(0.1 -0.1)">
      <defs>
       <path id="DejaVuSans-64" d="M 2906 2969 
L 2906 4863 
L 3481 4863 
L 3481 0 
L 2906 0 
L 2906 525 
Q 2725 213 2448 61 
Q 2172 -91 1784 -91 
Q 1150 -91 751 415 
Q 353 922 353 1747 
Q 353 2572 751 3078 
Q 1150 3584 1784 3584 
Q 2172 3584 2448 3432 
Q 2725 3281 2906 2969 
z
M 947 1747 
Q 947 1113 1208 752 
Q 1469 391 1925 391 
Q 2381 391 2643 752 
Q 2906 1113 2906 1747 
Q 2906 2381 2643 2742 
Q 2381 3103 1925 3103 
Q 1469 3103 1208 2742 
Q 947 2381 947 1747 
z
" transform="scale(0.015625)"/>
      </defs>
      <use xlink:href="#DejaVuSans-53"/>
      <use xlink:href="#DejaVuSans-74" x="63.476562"/>
      <use xlink:href="#DejaVuSans-72" x="102.685547"/>
      <use xlink:href="#DejaVuSans-61" x="143.798828"/>
      <use xlink:href="#DejaVuSans-6e" x="205.078125"/>
      <use xlink:href="#DejaVuSans-64" x="268.457031"/>
      <use xlink:href="#DejaVuSans-73" x="331.933594"/>
     </g>
    </g>
   </g>
   <g id="patch_6">
    <path d="M 55.778125 334.84 
L 55.778125 68.728 
" style="fill: none; stroke: #000000; stroke-width: 0.8; stroke-linejoin: miter; stroke-linecap: square"/>
   </g>
   <g id="patch_7">
    <path d="M 55.778125 334.84 
L 412.898125 334.84 
" style="fill: none; stroke: #000000; stroke-width: 0.8; stroke-linejoin: miter; stroke-linecap: square"/>
   </g>
   <g id="patch_8">
    <path d="M 55.778125 68.728 
L 412.898125 68.728 
" style="fill: none; stroke: #000000; stroke-width: 0.8; stroke-linejoin: miter; stroke-linecap: square"/>
   </g>
  </g>
 </g>
 <defs>
  <clipPath id="p43a474b7b5">
   <rect x="55.778125" y="68.728" width="357.12" height="266.112"/>
  </clipPath>
 </defs>
</svg>
